G04 #@! TF.FileFunction,Legend,Top*
%FSLAX46Y46*%
G04 Gerber Fmt 4.6, Leading zero omitted, Abs format (unit mm)*
G04 Created by KiCad (PCBNEW 4.0.2-stable) date 23/09/2017 10:35:29 PM*
%MOMM*%
G01*
G04 APERTURE LIST*
%ADD10C,0.100000*%
%ADD11C,0.150000*%
%ADD12C,0.120000*%
G04 APERTURE END LIST*
D10*
D11*
X147500000Y-105000000D02*
X148000000Y-104500000D01*
X152000000Y-104500000D02*
X152500000Y-104500000D01*
X152500000Y-104500000D02*
X152500000Y-105000000D01*
X148000000Y-109500000D02*
X147500000Y-109500000D01*
X147500000Y-109500000D02*
X147500000Y-109000000D01*
X152000000Y-109500000D02*
X152500000Y-109500000D01*
X152500000Y-109500000D02*
X152500000Y-109000000D01*
X144750000Y-102750000D02*
X142250000Y-102750000D01*
X142250000Y-102750000D02*
X142250000Y-109750000D01*
X142250000Y-109750000D02*
X144750000Y-109750000D01*
X144750000Y-102750000D02*
X144750000Y-109750000D01*
X148250000Y-113750000D02*
X150750000Y-113750000D01*
X150750000Y-113500000D02*
X150750000Y-111500000D01*
X150750000Y-111500000D02*
X148250000Y-111500000D01*
X148250000Y-111500000D02*
X148250000Y-112500000D01*
X148250000Y-112500000D02*
X148250000Y-113500000D01*
X148250000Y-113500000D02*
X150750000Y-113500000D01*
D12*
X150500000Y-102850000D02*
X151500000Y-102850000D01*
X151500000Y-101150000D02*
X150500000Y-101150000D01*
X147500000Y-101150000D02*
X146500000Y-101150000D01*
X146500000Y-102850000D02*
X147500000Y-102850000D01*
X146500000Y-112850000D02*
X146500000Y-112150000D01*
X147700000Y-112150000D02*
X147700000Y-112850000D01*
X152500000Y-112150000D02*
X152500000Y-112850000D01*
X151300000Y-112850000D02*
X151300000Y-112150000D01*
X156650000Y-102850000D02*
X156650000Y-102150000D01*
X157850000Y-102150000D02*
X157850000Y-102850000D01*
X154930000Y-102000000D02*
X154930000Y-103000000D01*
X153570000Y-103000000D02*
X153570000Y-102000000D01*
X155070000Y-103000000D02*
X155070000Y-102000000D01*
X156430000Y-102000000D02*
X156430000Y-103000000D01*
X154500000Y-104930000D02*
X153500000Y-104930000D01*
X153500000Y-103570000D02*
X154500000Y-103570000D01*
X146330000Y-111150000D02*
X146330000Y-112150000D01*
X144970000Y-112150000D02*
X144970000Y-111150000D01*
D11*
X155250000Y-111750000D02*
X157750000Y-111750000D01*
X157750000Y-111750000D02*
X157750000Y-104750000D01*
X157750000Y-104750000D02*
X155250000Y-104750000D01*
X155250000Y-111750000D02*
X155250000Y-104750000D01*
D10*
X156500000Y-112145238D02*
X156480952Y-112183333D01*
X156480952Y-112240476D01*
X156500000Y-112297619D01*
X156538095Y-112335714D01*
X156576190Y-112354762D01*
X156652381Y-112373810D01*
X156709524Y-112373810D01*
X156785714Y-112354762D01*
X156823810Y-112335714D01*
X156861905Y-112297619D01*
X156880952Y-112240476D01*
X156880952Y-112202381D01*
X156861905Y-112145238D01*
X156842857Y-112126190D01*
X156709524Y-112126190D01*
X156709524Y-112202381D01*
X156080952Y-112602381D02*
X155680952Y-112602381D01*
X155680952Y-112507143D01*
X155700000Y-112450000D01*
X155738095Y-112411905D01*
X155776190Y-112392857D01*
X155852381Y-112373809D01*
X155909524Y-112373809D01*
X155985714Y-112392857D01*
X156023810Y-112411905D01*
X156061905Y-112450000D01*
X156080952Y-112507143D01*
X156080952Y-112602381D01*
X155928571Y-112202381D02*
X155928571Y-111897619D01*
X156080952Y-112050000D02*
X155776190Y-112050000D01*
X155280952Y-112602381D02*
X154880952Y-112602381D01*
X154880952Y-112507143D01*
X154900000Y-112450000D01*
X154938095Y-112411905D01*
X154976190Y-112392857D01*
X155052381Y-112373809D01*
X155109524Y-112373809D01*
X155185714Y-112392857D01*
X155223810Y-112411905D01*
X155261905Y-112450000D01*
X155280952Y-112507143D01*
X155280952Y-112602381D01*
X155128571Y-112202381D02*
X155128571Y-111897619D01*
X154080952Y-112326190D02*
X154080952Y-112516666D01*
X154271429Y-112535714D01*
X154252381Y-112516666D01*
X154233333Y-112478571D01*
X154233333Y-112383333D01*
X154252381Y-112345237D01*
X154271429Y-112326190D01*
X154309524Y-112307142D01*
X154404762Y-112307142D01*
X154442857Y-112326190D01*
X154461905Y-112345237D01*
X154480952Y-112383333D01*
X154480952Y-112478571D01*
X154461905Y-112516666D01*
X154442857Y-112535714D01*
X154080952Y-112192857D02*
X154480952Y-112059523D01*
X154080952Y-111926190D01*
X143854762Y-113250000D02*
X143816667Y-113230952D01*
X143759524Y-113230952D01*
X143702381Y-113250000D01*
X143664286Y-113288095D01*
X143645238Y-113326190D01*
X143626190Y-113402381D01*
X143626190Y-113459524D01*
X143645238Y-113535714D01*
X143664286Y-113573810D01*
X143702381Y-113611905D01*
X143759524Y-113630952D01*
X143797619Y-113630952D01*
X143854762Y-113611905D01*
X143873810Y-113592857D01*
X143873810Y-113459524D01*
X143797619Y-113459524D01*
X143397619Y-112830952D02*
X143397619Y-112430952D01*
X143492857Y-112430952D01*
X143550000Y-112450000D01*
X143588095Y-112488095D01*
X143607143Y-112526190D01*
X143626191Y-112602381D01*
X143626191Y-112659524D01*
X143607143Y-112735714D01*
X143588095Y-112773810D01*
X143550000Y-112811905D01*
X143492857Y-112830952D01*
X143397619Y-112830952D01*
X143797619Y-112678571D02*
X144102381Y-112678571D01*
X143950000Y-112830952D02*
X143950000Y-112526190D01*
X143397619Y-112030952D02*
X143397619Y-111630952D01*
X143492857Y-111630952D01*
X143550000Y-111650000D01*
X143588095Y-111688095D01*
X143607143Y-111726190D01*
X143626191Y-111802381D01*
X143626191Y-111859524D01*
X143607143Y-111935714D01*
X143588095Y-111973810D01*
X143550000Y-112011905D01*
X143492857Y-112030952D01*
X143397619Y-112030952D01*
X143797619Y-111878571D02*
X144102381Y-111878571D01*
X143673810Y-110830952D02*
X143483334Y-110830952D01*
X143464286Y-111021429D01*
X143483334Y-111002381D01*
X143521429Y-110983333D01*
X143616667Y-110983333D01*
X143654763Y-111002381D01*
X143673810Y-111021429D01*
X143692858Y-111059524D01*
X143692858Y-111154762D01*
X143673810Y-111192857D01*
X143654763Y-111211905D01*
X143616667Y-111230952D01*
X143521429Y-111230952D01*
X143483334Y-111211905D01*
X143464286Y-111192857D01*
X143807143Y-110830952D02*
X143940477Y-111230952D01*
X144073810Y-110830952D01*
M02*
