M48
;DRILL file {KiCad 4.0.2-stable} date 23/09/2017 10:35:46 PM
;FORMAT={-:-/ absolute / inch / decimal}
FMAT,2
INCH,TZ
T1C0.012
T2C0.012
T3C0.030
%
G90
G05
M72
T1
X5.6201Y-4.372
X5.6201Y-4.4035
X5.6201Y-4.435
X5.6201Y-4.4665
X6.0748Y-4.4587
X6.1063Y-4.4587
X6.1378Y-4.4587
X6.1693Y-4.4587
T2
X5.6437Y-4.1634
X5.6572Y-4.2162
X5.6614Y-4.372
X5.6693Y-4.2441
X5.6929Y-4.4528
X5.7067Y-4.0157
X5.7428Y-4.2835
X5.7461Y-4.25
X5.75Y-4.1969
X5.7559Y-4.1299
X5.7677Y-4.2283
X5.7736Y-4.1043
X5.8051Y-4.313
X5.8051Y-4.3635
X5.8268Y-4.0807
X5.8602Y-4.3602
X5.8858Y-4.065
X5.9469Y-4.0157
X5.9921Y-4.313
X6.0335Y-4.0059
X6.0433Y-4.2283
X6.0433Y-4.2756
X6.0453Y-4.1535
X6.0606Y-4.326
X6.061Y-4.1831
X6.065Y-4.3556
X6.0807Y-4.4173
X6.1319Y-4.0965
X6.1418Y-4.2387
X6.1437Y-4.3169
X6.1614Y-4.4134
X6.1732Y-4.2913
X6.1811Y-4.2126
T3
X5.9055Y-4.2126
T0
M30
