G04 #@! TF.FileFunction,Copper,L2,Bot,Signal*
%FSLAX46Y46*%
G04 Gerber Fmt 4.6, Leading zero omitted, Abs format (unit mm)*
G04 Created by KiCad (PCBNEW 4.0.2-stable) date 23/09/2017 10:35:29 PM*
%MOMM*%
G01*
G04 APERTURE LIST*
%ADD10C,0.100000*%
%ADD11C,1.524000*%
%ADD12O,0.609600X1.000000*%
%ADD13O,1.000000X0.609600*%
%ADD14C,0.609600*%
%ADD15C,0.250000*%
%ADD16C,0.177800*%
G04 APERTURE END LIST*
D10*
D11*
X150000000Y-107000000D03*
D12*
X154300000Y-113250000D03*
X155100000Y-113250000D03*
X155900000Y-113250000D03*
X156700000Y-113250000D03*
D13*
X142750000Y-111050000D03*
X142750000Y-111850000D03*
X142750000Y-112650000D03*
X142750000Y-113450000D03*
D14*
X144600004Y-113100000D03*
X143350000Y-105750000D03*
X154450000Y-112200000D03*
X147450000Y-110832220D03*
X147450000Y-109550002D03*
X157000000Y-107000000D03*
X156500000Y-112100000D03*
X146200000Y-104900000D03*
X146050000Y-106600000D03*
X144950000Y-102000000D03*
X151050000Y-102000000D03*
X143800000Y-111050000D03*
X153950000Y-106250000D03*
X153250000Y-101750000D03*
X149500000Y-103250000D03*
X146650000Y-104250000D03*
X156800000Y-109000000D03*
X143692799Y-107090398D03*
X144000000Y-107800000D03*
X156050000Y-109650000D03*
X153939710Y-109879179D03*
X145950000Y-107950000D03*
X154050000Y-110633168D03*
X145867790Y-108800000D03*
X153500000Y-108600000D03*
X156001973Y-107662036D03*
X146500000Y-107400000D03*
X148000000Y-103649986D03*
X153550002Y-105500000D03*
X152200000Y-109550000D03*
X148850000Y-110750000D03*
X155750000Y-104050000D03*
X153500000Y-107400000D03*
D15*
X143350000Y-105750000D02*
X142450000Y-106650000D01*
X142450000Y-106650000D02*
X142450000Y-108250000D01*
X142450000Y-108250000D02*
X144600004Y-110400004D01*
X144600004Y-110400004D02*
X144600004Y-112668948D01*
X144600004Y-112668948D02*
X144600004Y-113100000D01*
X154450000Y-112200000D02*
X156400000Y-112200000D01*
X156400000Y-112200000D02*
X156500000Y-112100000D01*
X147450000Y-109550002D02*
X147450000Y-110832220D01*
X157450000Y-110050000D02*
X157450000Y-107450000D01*
X157450000Y-107450000D02*
X157000000Y-107000000D01*
X156500000Y-111000000D02*
X157450000Y-110050000D01*
X156500000Y-112100000D02*
X156500000Y-111000000D01*
X146200000Y-104900000D02*
X144950000Y-103650000D01*
X144950000Y-103650000D02*
X144950000Y-102000000D01*
X146050000Y-106600000D02*
X146050000Y-105050000D01*
X146050000Y-105050000D02*
X146200000Y-104900000D01*
X151050000Y-102000000D02*
X144950000Y-102000000D01*
X144050000Y-113750000D02*
X143800000Y-113500000D01*
X143800000Y-113500000D02*
X143800000Y-111050000D01*
X145150000Y-113750000D02*
X144050000Y-113750000D01*
X145850000Y-113050000D02*
X145150000Y-113750000D01*
X146500000Y-113050000D02*
X145850000Y-113050000D01*
X154300000Y-113250000D02*
X154100000Y-113050000D01*
X154100000Y-113050000D02*
X146500000Y-113050000D01*
X154254799Y-104754799D02*
X152750000Y-103250000D01*
X152750000Y-103250000D02*
X151750000Y-103250000D01*
X153950000Y-106250000D02*
X154254799Y-105945201D01*
X154254799Y-105945201D02*
X154254799Y-104754799D01*
X149500000Y-103250000D02*
X151750000Y-103250000D01*
X151750000Y-103250000D02*
X153250000Y-101750000D01*
X146954799Y-103945201D02*
X146954799Y-103395201D01*
X146650000Y-104250000D02*
X146954799Y-103945201D01*
X146954799Y-103395201D02*
X147500000Y-102850000D01*
X147500000Y-102850000D02*
X149100000Y-102850000D01*
X149100000Y-102850000D02*
X149500000Y-103250000D01*
X154982346Y-111617799D02*
X156800000Y-109800145D01*
X156800000Y-109431052D02*
X156800000Y-109000000D01*
X143388000Y-108068906D02*
X145660566Y-110341472D01*
X156800000Y-109800145D02*
X156800000Y-109431052D01*
X145660566Y-111629509D02*
X146670491Y-112639434D01*
X145660566Y-110341472D02*
X145660566Y-111629509D01*
X146670491Y-112639434D02*
X153148908Y-112639434D01*
X143692799Y-107090398D02*
X143388000Y-107395197D01*
X153148908Y-112639434D02*
X154170543Y-111617799D01*
X143388000Y-107395197D02*
X143388000Y-108068906D01*
X154170543Y-111617799D02*
X154982346Y-111617799D01*
X146062977Y-109862977D02*
X144304799Y-108104799D01*
X144304799Y-108104799D02*
X144000000Y-107800000D01*
X152982224Y-112237023D02*
X146837175Y-112237023D01*
X154003859Y-111215388D02*
X152982224Y-112237023D01*
X156050000Y-109650000D02*
X154484612Y-111215388D01*
X146062977Y-111462825D02*
X146062977Y-109862977D01*
X146837175Y-112237023D02*
X146062977Y-111462825D01*
X154484612Y-111215388D02*
X154003859Y-111215388D01*
X146867799Y-111129457D02*
X147170543Y-111432201D01*
X147170543Y-111432201D02*
X152386688Y-111432201D01*
X152386688Y-111432201D02*
X153634911Y-110183978D01*
X145950000Y-107950000D02*
X146867799Y-108867799D01*
X146867799Y-108867799D02*
X146867799Y-111129457D01*
X153634911Y-110183978D02*
X153939710Y-109879179D01*
X146465388Y-111296141D02*
X147003859Y-111834612D01*
X145867790Y-108800000D02*
X146465388Y-109397598D01*
X153950152Y-110700000D02*
X154050000Y-110700000D01*
X147003859Y-111834612D02*
X152815540Y-111834612D01*
X152815540Y-111834612D02*
X153950152Y-110700000D01*
X146465388Y-109397598D02*
X146465388Y-111296141D01*
X154050000Y-110700000D02*
X154050000Y-110633168D01*
X153931052Y-108600000D02*
X153500000Y-108600000D01*
X156001973Y-107662036D02*
X155064009Y-108600000D01*
X155064009Y-108600000D02*
X153931052Y-108600000D01*
X146804799Y-107095201D02*
X146500000Y-107400000D01*
X148000000Y-105900000D02*
X146804799Y-107095201D01*
X148000000Y-103649986D02*
X148000000Y-105900000D01*
X149350000Y-110250000D02*
X146500000Y-107400000D01*
X148304799Y-103954785D02*
X148000000Y-103649986D01*
X153550002Y-105500000D02*
X149850014Y-105500000D01*
X149850014Y-105500000D02*
X148304799Y-103954785D01*
X152200000Y-110050000D02*
X152200000Y-109550000D01*
X152200000Y-110050000D02*
X152000000Y-110250000D01*
X152000000Y-110250000D02*
X149350000Y-110250000D01*
X149350000Y-110250000D02*
X148850000Y-110750000D01*
X155750000Y-106750000D02*
X155750000Y-104050000D01*
X155402410Y-107097590D02*
X155750000Y-106750000D01*
X154583317Y-107097590D02*
X155402410Y-107097590D01*
X153500000Y-107400000D02*
X154280908Y-107400000D01*
X154280908Y-107400000D02*
X154583317Y-107097590D01*
D16*
G36*
X157658300Y-113658300D02*
X157576712Y-113658300D01*
X157577331Y-113656519D01*
X157601700Y-113481300D01*
X157601700Y-113286100D01*
X156736100Y-113286100D01*
X156736100Y-113306100D01*
X156663900Y-113306100D01*
X156663900Y-113286100D01*
X156643900Y-113286100D01*
X156643900Y-113213900D01*
X156663900Y-113213900D01*
X156663900Y-112303191D01*
X156736100Y-112303191D01*
X156736100Y-113213900D01*
X157601700Y-113213900D01*
X157601700Y-113018700D01*
X157577331Y-112843481D01*
X157519247Y-112676383D01*
X157429680Y-112523827D01*
X157312072Y-112391676D01*
X157170942Y-112285008D01*
X157011714Y-112207923D01*
X156876599Y-112170563D01*
X156736100Y-112303191D01*
X156663900Y-112303191D01*
X156523401Y-112170563D01*
X156388286Y-112207923D01*
X156229058Y-112285008D01*
X156087928Y-112391676D01*
X156000636Y-112489762D01*
X155903990Y-112479604D01*
X155792912Y-112489713D01*
X155685912Y-112521204D01*
X155587068Y-112572879D01*
X155500142Y-112642769D01*
X155499561Y-112643462D01*
X155419579Y-112577295D01*
X155321465Y-112524245D01*
X155214916Y-112491263D01*
X155103990Y-112479604D01*
X154992912Y-112489713D01*
X154885912Y-112521204D01*
X154787068Y-112572879D01*
X154700142Y-112642769D01*
X154699561Y-112643462D01*
X154619579Y-112577295D01*
X154521465Y-112524245D01*
X154414916Y-112491263D01*
X154303990Y-112479604D01*
X154192912Y-112489713D01*
X154085912Y-112521204D01*
X153987068Y-112572879D01*
X153900142Y-112642769D01*
X153887110Y-112658300D01*
X153683990Y-112658300D01*
X154332791Y-112009499D01*
X154982346Y-112009499D01*
X155018367Y-112005967D01*
X155054399Y-112002815D01*
X155056378Y-112002240D01*
X155058428Y-112002039D01*
X155093067Y-111991581D01*
X155127811Y-111981487D01*
X155129639Y-111980539D01*
X155131611Y-111979944D01*
X155163552Y-111962960D01*
X155195681Y-111946306D01*
X155197291Y-111945020D01*
X155199109Y-111944054D01*
X155227124Y-111921206D01*
X155255426Y-111898613D01*
X155258296Y-111895783D01*
X155258351Y-111895738D01*
X155258393Y-111895687D01*
X155259320Y-111894773D01*
X157076974Y-110077119D01*
X157099953Y-110049144D01*
X157123197Y-110021443D01*
X157124189Y-110019638D01*
X157125497Y-110018046D01*
X157142621Y-109986111D01*
X157160025Y-109954452D01*
X157160646Y-109952494D01*
X157161622Y-109950674D01*
X157172216Y-109916021D01*
X157183140Y-109881584D01*
X157183370Y-109879538D01*
X157183972Y-109877567D01*
X157187630Y-109841553D01*
X157191662Y-109805614D01*
X157191690Y-109801592D01*
X157191698Y-109801513D01*
X157191691Y-109801439D01*
X157191700Y-109800145D01*
X157191700Y-109416200D01*
X157234716Y-109375237D01*
X157299321Y-109283654D01*
X157344906Y-109181266D01*
X157369737Y-109071974D01*
X157371524Y-108943962D01*
X157349755Y-108834019D01*
X157307046Y-108730399D01*
X157245023Y-108637048D01*
X157166050Y-108557521D01*
X157073134Y-108494849D01*
X156969815Y-108451417D01*
X156860027Y-108428881D01*
X156747953Y-108428098D01*
X156637861Y-108449100D01*
X156533945Y-108491084D01*
X156440163Y-108552453D01*
X156360087Y-108630870D01*
X156296768Y-108723346D01*
X156252616Y-108826360D01*
X156229314Y-108935987D01*
X156227749Y-109048053D01*
X156239025Y-109109492D01*
X156219815Y-109101417D01*
X156110027Y-109078881D01*
X155997953Y-109078098D01*
X155887861Y-109099100D01*
X155783945Y-109141084D01*
X155690163Y-109202453D01*
X155610087Y-109280870D01*
X155546768Y-109373346D01*
X155502616Y-109476360D01*
X155479314Y-109585987D01*
X155478170Y-109667882D01*
X154612830Y-110533222D01*
X154599755Y-110467187D01*
X154557046Y-110363567D01*
X154495023Y-110270216D01*
X154417997Y-110192650D01*
X154439031Y-110162833D01*
X154484616Y-110060445D01*
X154509447Y-109951153D01*
X154511234Y-109823141D01*
X154489465Y-109713198D01*
X154446756Y-109609578D01*
X154384733Y-109516227D01*
X154305760Y-109436700D01*
X154212844Y-109374028D01*
X154109525Y-109330596D01*
X153999737Y-109308060D01*
X153887663Y-109307277D01*
X153777571Y-109328279D01*
X153673655Y-109370263D01*
X153579873Y-109431632D01*
X153499797Y-109510049D01*
X153436478Y-109602525D01*
X153392326Y-109705539D01*
X153369024Y-109815166D01*
X153367880Y-109897061D01*
X152224440Y-111040501D01*
X149344491Y-111040501D01*
X149349321Y-111033654D01*
X149394906Y-110931266D01*
X149419737Y-110821974D01*
X149420979Y-110732969D01*
X149512248Y-110641700D01*
X152000000Y-110641700D01*
X152036021Y-110638168D01*
X152072053Y-110635016D01*
X152074032Y-110634441D01*
X152076082Y-110634240D01*
X152110721Y-110623782D01*
X152145465Y-110613688D01*
X152147293Y-110612740D01*
X152149265Y-110612145D01*
X152181206Y-110595161D01*
X152213335Y-110578507D01*
X152214945Y-110577221D01*
X152216763Y-110576255D01*
X152244778Y-110553407D01*
X152273080Y-110530814D01*
X152275950Y-110527984D01*
X152276005Y-110527939D01*
X152276047Y-110527888D01*
X152276974Y-110526974D01*
X152476974Y-110326974D01*
X152499935Y-110299021D01*
X152523197Y-110271298D01*
X152524191Y-110269490D01*
X152525497Y-110267900D01*
X152542609Y-110235987D01*
X152560025Y-110204307D01*
X152560646Y-110202349D01*
X152561622Y-110200529D01*
X152572216Y-110165876D01*
X152583140Y-110131439D01*
X152583370Y-110129393D01*
X152583972Y-110127422D01*
X152587630Y-110091413D01*
X152591662Y-110055469D01*
X152591690Y-110051446D01*
X152591698Y-110051367D01*
X152591691Y-110051289D01*
X152591700Y-110050000D01*
X152591700Y-109966200D01*
X152634716Y-109925237D01*
X152699321Y-109833654D01*
X152744906Y-109731266D01*
X152769737Y-109621974D01*
X152771524Y-109493962D01*
X152749755Y-109384019D01*
X152707046Y-109280399D01*
X152645023Y-109187048D01*
X152566050Y-109107521D01*
X152473134Y-109044849D01*
X152369815Y-109001417D01*
X152260027Y-108978881D01*
X152147953Y-108978098D01*
X152037861Y-108999100D01*
X151933945Y-109041084D01*
X151840163Y-109102453D01*
X151760087Y-109180870D01*
X151696768Y-109273346D01*
X151652616Y-109376360D01*
X151629314Y-109485987D01*
X151627749Y-109598053D01*
X151647981Y-109708289D01*
X151689239Y-109812495D01*
X151718758Y-109858300D01*
X149512247Y-109858300D01*
X147539114Y-107885166D01*
X149165887Y-107885166D01*
X149226880Y-108125525D01*
X149461314Y-108254726D01*
X149716449Y-108335710D01*
X149982482Y-108365362D01*
X150249188Y-108342545D01*
X150506317Y-108268134D01*
X150743989Y-108144990D01*
X150773120Y-108125525D01*
X150834113Y-107885166D01*
X150000000Y-107051053D01*
X149165887Y-107885166D01*
X147539114Y-107885166D01*
X147070511Y-107416563D01*
X147070979Y-107382969D01*
X147081773Y-107372175D01*
X147471465Y-106982482D01*
X148634638Y-106982482D01*
X148657455Y-107249188D01*
X148731866Y-107506317D01*
X148855010Y-107743989D01*
X148874475Y-107773120D01*
X149114834Y-107834113D01*
X149948947Y-107000000D01*
X150051053Y-107000000D01*
X150885166Y-107834113D01*
X151125525Y-107773120D01*
X151254726Y-107538686D01*
X151283494Y-107448053D01*
X152927749Y-107448053D01*
X152947981Y-107558289D01*
X152989239Y-107662495D01*
X153049952Y-107756703D01*
X153127807Y-107837325D01*
X153219839Y-107901289D01*
X153322542Y-107946158D01*
X153432005Y-107970225D01*
X153544057Y-107972572D01*
X153654431Y-107953111D01*
X153758923Y-107912581D01*
X153853553Y-107852527D01*
X153917428Y-107791700D01*
X154280908Y-107791700D01*
X154316921Y-107788169D01*
X154352962Y-107785016D01*
X154354942Y-107784441D01*
X154356990Y-107784240D01*
X154391663Y-107773772D01*
X154426373Y-107763687D01*
X154428197Y-107762742D01*
X154430173Y-107762145D01*
X154462150Y-107745142D01*
X154494243Y-107728507D01*
X154495853Y-107727221D01*
X154497671Y-107726255D01*
X154525686Y-107703407D01*
X154553988Y-107680814D01*
X154556853Y-107677988D01*
X154556913Y-107677939D01*
X154556959Y-107677884D01*
X154557882Y-107676973D01*
X154745564Y-107489290D01*
X155402410Y-107489290D01*
X155438431Y-107485758D01*
X155456393Y-107484187D01*
X155454589Y-107488396D01*
X155431287Y-107598023D01*
X155430143Y-107679918D01*
X154901761Y-108208300D01*
X153916475Y-108208300D01*
X153866050Y-108157521D01*
X153773134Y-108094849D01*
X153669815Y-108051417D01*
X153560027Y-108028881D01*
X153447953Y-108028098D01*
X153337861Y-108049100D01*
X153233945Y-108091084D01*
X153140163Y-108152453D01*
X153060087Y-108230870D01*
X152996768Y-108323346D01*
X152952616Y-108426360D01*
X152929314Y-108535987D01*
X152927749Y-108648053D01*
X152947981Y-108758289D01*
X152989239Y-108862495D01*
X153049952Y-108956703D01*
X153127807Y-109037325D01*
X153219839Y-109101289D01*
X153322542Y-109146158D01*
X153432005Y-109170225D01*
X153544057Y-109172572D01*
X153654431Y-109153111D01*
X153758923Y-109112581D01*
X153853553Y-109052527D01*
X153917428Y-108991700D01*
X155064009Y-108991700D01*
X155100030Y-108988168D01*
X155136062Y-108985016D01*
X155138041Y-108984441D01*
X155140091Y-108984240D01*
X155174730Y-108973782D01*
X155209474Y-108963688D01*
X155211302Y-108962740D01*
X155213274Y-108962145D01*
X155245215Y-108945161D01*
X155277344Y-108928507D01*
X155278954Y-108927221D01*
X155280772Y-108926255D01*
X155308787Y-108903407D01*
X155337089Y-108880814D01*
X155339959Y-108877984D01*
X155340014Y-108877939D01*
X155340056Y-108877888D01*
X155340983Y-108876974D01*
X155984634Y-108233322D01*
X156046030Y-108234608D01*
X156156404Y-108215147D01*
X156260896Y-108174617D01*
X156355526Y-108114563D01*
X156436689Y-108037273D01*
X156501294Y-107945690D01*
X156546879Y-107843302D01*
X156571710Y-107734010D01*
X156573497Y-107605998D01*
X156551728Y-107496055D01*
X156509019Y-107392435D01*
X156446996Y-107299084D01*
X156368023Y-107219557D01*
X156275107Y-107156885D01*
X156171788Y-107113453D01*
X156062000Y-107090917D01*
X155963717Y-107090230D01*
X156026973Y-107026974D01*
X156049906Y-106999055D01*
X156073197Y-106971298D01*
X156074191Y-106969489D01*
X156075496Y-106967901D01*
X156092580Y-106936040D01*
X156110025Y-106904307D01*
X156110648Y-106902344D01*
X156111621Y-106900529D01*
X156122192Y-106865950D01*
X156133140Y-106831439D01*
X156133370Y-106829389D01*
X156133971Y-106827423D01*
X156137620Y-106791498D01*
X156141662Y-106755469D01*
X156141690Y-106751437D01*
X156141697Y-106751368D01*
X156141691Y-106751304D01*
X156141700Y-106750000D01*
X156141700Y-104466200D01*
X156184716Y-104425237D01*
X156249321Y-104333654D01*
X156294906Y-104231266D01*
X156319737Y-104121974D01*
X156321524Y-103993962D01*
X156299755Y-103884019D01*
X156257046Y-103780399D01*
X156195023Y-103687048D01*
X156116050Y-103607521D01*
X156023134Y-103544849D01*
X155919815Y-103501417D01*
X155810027Y-103478881D01*
X155697953Y-103478098D01*
X155587861Y-103499100D01*
X155483945Y-103541084D01*
X155390163Y-103602453D01*
X155310087Y-103680870D01*
X155246768Y-103773346D01*
X155202616Y-103876360D01*
X155179314Y-103985987D01*
X155177749Y-104098053D01*
X155197981Y-104208289D01*
X155239239Y-104312495D01*
X155299952Y-104406703D01*
X155358300Y-104467125D01*
X155358300Y-106587753D01*
X155240162Y-106705890D01*
X154583317Y-106705890D01*
X154547345Y-106709417D01*
X154511263Y-106712574D01*
X154509283Y-106713149D01*
X154507235Y-106713350D01*
X154472608Y-106723804D01*
X154437852Y-106733902D01*
X154436024Y-106734850D01*
X154434052Y-106735445D01*
X154402111Y-106752429D01*
X154369982Y-106769083D01*
X154368372Y-106770369D01*
X154366554Y-106771335D01*
X154338539Y-106794183D01*
X154310237Y-106816776D01*
X154307367Y-106819606D01*
X154307312Y-106819651D01*
X154307270Y-106819702D01*
X154306343Y-106820616D01*
X154118660Y-107008300D01*
X153916475Y-107008300D01*
X153866050Y-106957521D01*
X153773134Y-106894849D01*
X153669815Y-106851417D01*
X153560027Y-106828881D01*
X153447953Y-106828098D01*
X153337861Y-106849100D01*
X153233945Y-106891084D01*
X153140163Y-106952453D01*
X153060087Y-107030870D01*
X152996768Y-107123346D01*
X152952616Y-107226360D01*
X152929314Y-107335987D01*
X152927749Y-107448053D01*
X151283494Y-107448053D01*
X151335710Y-107283551D01*
X151365362Y-107017518D01*
X151342545Y-106750812D01*
X151268134Y-106493683D01*
X151144990Y-106256011D01*
X151125525Y-106226880D01*
X150885166Y-106165887D01*
X150051053Y-107000000D01*
X149948947Y-107000000D01*
X149114834Y-106165887D01*
X148874475Y-106226880D01*
X148745274Y-106461314D01*
X148664290Y-106716449D01*
X148634638Y-106982482D01*
X147471465Y-106982482D01*
X148276973Y-106176974D01*
X148299906Y-106149055D01*
X148323197Y-106121298D01*
X148324191Y-106119489D01*
X148325496Y-106117901D01*
X148342580Y-106086040D01*
X148360025Y-106054307D01*
X148360648Y-106052344D01*
X148361621Y-106050529D01*
X148372192Y-106015950D01*
X148383140Y-105981439D01*
X148383370Y-105979389D01*
X148383971Y-105977423D01*
X148387620Y-105941498D01*
X148391662Y-105905469D01*
X148391690Y-105901437D01*
X148391697Y-105901368D01*
X148391691Y-105901304D01*
X148391700Y-105900000D01*
X148391700Y-104595634D01*
X149520245Y-105724179D01*
X149493683Y-105731866D01*
X149256011Y-105855010D01*
X149226880Y-105874475D01*
X149165887Y-106114834D01*
X150000000Y-106948947D01*
X150834113Y-106114834D01*
X150777491Y-105891700D01*
X153133750Y-105891700D01*
X153177809Y-105937325D01*
X153269841Y-106001289D01*
X153372544Y-106046158D01*
X153411856Y-106054801D01*
X153402616Y-106076360D01*
X153379314Y-106185987D01*
X153377749Y-106298053D01*
X153397981Y-106408289D01*
X153439239Y-106512495D01*
X153499952Y-106606703D01*
X153577807Y-106687325D01*
X153669839Y-106751289D01*
X153772542Y-106796158D01*
X153882005Y-106820225D01*
X153994057Y-106822572D01*
X154104431Y-106803111D01*
X154208923Y-106762581D01*
X154303553Y-106702527D01*
X154384716Y-106625237D01*
X154449321Y-106533654D01*
X154494906Y-106431266D01*
X154519737Y-106321974D01*
X154520979Y-106232969D01*
X154531773Y-106222175D01*
X154554752Y-106194200D01*
X154577996Y-106166499D01*
X154578988Y-106164694D01*
X154580296Y-106163102D01*
X154597420Y-106131167D01*
X154614824Y-106099508D01*
X154615445Y-106097550D01*
X154616421Y-106095730D01*
X154627015Y-106061077D01*
X154637939Y-106026640D01*
X154638169Y-106024594D01*
X154638771Y-106022623D01*
X154642429Y-105986614D01*
X154646461Y-105950670D01*
X154646489Y-105946647D01*
X154646497Y-105946568D01*
X154646490Y-105946494D01*
X154646499Y-105945201D01*
X154646499Y-104754799D01*
X154642967Y-104718782D01*
X154639815Y-104682745D01*
X154639240Y-104680765D01*
X154639039Y-104678717D01*
X154628585Y-104644090D01*
X154618487Y-104609334D01*
X154617539Y-104607506D01*
X154616944Y-104605534D01*
X154599960Y-104573593D01*
X154583306Y-104541464D01*
X154582020Y-104539854D01*
X154581054Y-104538036D01*
X154558206Y-104510021D01*
X154535613Y-104481719D01*
X154532783Y-104478849D01*
X154532738Y-104478794D01*
X154532687Y-104478752D01*
X154531773Y-104477825D01*
X153026974Y-102973026D01*
X152998999Y-102950047D01*
X152971298Y-102926803D01*
X152969493Y-102925811D01*
X152967901Y-102924503D01*
X152936001Y-102907399D01*
X152904307Y-102889975D01*
X152902345Y-102889352D01*
X152900529Y-102888379D01*
X152865909Y-102877794D01*
X152831439Y-102866860D01*
X152829394Y-102866631D01*
X152827423Y-102866028D01*
X152791403Y-102862369D01*
X152755469Y-102858338D01*
X152751447Y-102858310D01*
X152751368Y-102858302D01*
X152751294Y-102858309D01*
X152750000Y-102858300D01*
X152695648Y-102858300D01*
X153232661Y-102321286D01*
X153294057Y-102322572D01*
X153404431Y-102303111D01*
X153508923Y-102262581D01*
X153603553Y-102202527D01*
X153684716Y-102125237D01*
X153749321Y-102033654D01*
X153794906Y-101931266D01*
X153819737Y-101821974D01*
X153821524Y-101693962D01*
X153799755Y-101584019D01*
X153757046Y-101480399D01*
X153695023Y-101387048D01*
X153649991Y-101341700D01*
X157658300Y-101341700D01*
X157658300Y-113658300D01*
X157658300Y-113658300D01*
G37*
X157658300Y-113658300D02*
X157576712Y-113658300D01*
X157577331Y-113656519D01*
X157601700Y-113481300D01*
X157601700Y-113286100D01*
X156736100Y-113286100D01*
X156736100Y-113306100D01*
X156663900Y-113306100D01*
X156663900Y-113286100D01*
X156643900Y-113286100D01*
X156643900Y-113213900D01*
X156663900Y-113213900D01*
X156663900Y-112303191D01*
X156736100Y-112303191D01*
X156736100Y-113213900D01*
X157601700Y-113213900D01*
X157601700Y-113018700D01*
X157577331Y-112843481D01*
X157519247Y-112676383D01*
X157429680Y-112523827D01*
X157312072Y-112391676D01*
X157170942Y-112285008D01*
X157011714Y-112207923D01*
X156876599Y-112170563D01*
X156736100Y-112303191D01*
X156663900Y-112303191D01*
X156523401Y-112170563D01*
X156388286Y-112207923D01*
X156229058Y-112285008D01*
X156087928Y-112391676D01*
X156000636Y-112489762D01*
X155903990Y-112479604D01*
X155792912Y-112489713D01*
X155685912Y-112521204D01*
X155587068Y-112572879D01*
X155500142Y-112642769D01*
X155499561Y-112643462D01*
X155419579Y-112577295D01*
X155321465Y-112524245D01*
X155214916Y-112491263D01*
X155103990Y-112479604D01*
X154992912Y-112489713D01*
X154885912Y-112521204D01*
X154787068Y-112572879D01*
X154700142Y-112642769D01*
X154699561Y-112643462D01*
X154619579Y-112577295D01*
X154521465Y-112524245D01*
X154414916Y-112491263D01*
X154303990Y-112479604D01*
X154192912Y-112489713D01*
X154085912Y-112521204D01*
X153987068Y-112572879D01*
X153900142Y-112642769D01*
X153887110Y-112658300D01*
X153683990Y-112658300D01*
X154332791Y-112009499D01*
X154982346Y-112009499D01*
X155018367Y-112005967D01*
X155054399Y-112002815D01*
X155056378Y-112002240D01*
X155058428Y-112002039D01*
X155093067Y-111991581D01*
X155127811Y-111981487D01*
X155129639Y-111980539D01*
X155131611Y-111979944D01*
X155163552Y-111962960D01*
X155195681Y-111946306D01*
X155197291Y-111945020D01*
X155199109Y-111944054D01*
X155227124Y-111921206D01*
X155255426Y-111898613D01*
X155258296Y-111895783D01*
X155258351Y-111895738D01*
X155258393Y-111895687D01*
X155259320Y-111894773D01*
X157076974Y-110077119D01*
X157099953Y-110049144D01*
X157123197Y-110021443D01*
X157124189Y-110019638D01*
X157125497Y-110018046D01*
X157142621Y-109986111D01*
X157160025Y-109954452D01*
X157160646Y-109952494D01*
X157161622Y-109950674D01*
X157172216Y-109916021D01*
X157183140Y-109881584D01*
X157183370Y-109879538D01*
X157183972Y-109877567D01*
X157187630Y-109841553D01*
X157191662Y-109805614D01*
X157191690Y-109801592D01*
X157191698Y-109801513D01*
X157191691Y-109801439D01*
X157191700Y-109800145D01*
X157191700Y-109416200D01*
X157234716Y-109375237D01*
X157299321Y-109283654D01*
X157344906Y-109181266D01*
X157369737Y-109071974D01*
X157371524Y-108943962D01*
X157349755Y-108834019D01*
X157307046Y-108730399D01*
X157245023Y-108637048D01*
X157166050Y-108557521D01*
X157073134Y-108494849D01*
X156969815Y-108451417D01*
X156860027Y-108428881D01*
X156747953Y-108428098D01*
X156637861Y-108449100D01*
X156533945Y-108491084D01*
X156440163Y-108552453D01*
X156360087Y-108630870D01*
X156296768Y-108723346D01*
X156252616Y-108826360D01*
X156229314Y-108935987D01*
X156227749Y-109048053D01*
X156239025Y-109109492D01*
X156219815Y-109101417D01*
X156110027Y-109078881D01*
X155997953Y-109078098D01*
X155887861Y-109099100D01*
X155783945Y-109141084D01*
X155690163Y-109202453D01*
X155610087Y-109280870D01*
X155546768Y-109373346D01*
X155502616Y-109476360D01*
X155479314Y-109585987D01*
X155478170Y-109667882D01*
X154612830Y-110533222D01*
X154599755Y-110467187D01*
X154557046Y-110363567D01*
X154495023Y-110270216D01*
X154417997Y-110192650D01*
X154439031Y-110162833D01*
X154484616Y-110060445D01*
X154509447Y-109951153D01*
X154511234Y-109823141D01*
X154489465Y-109713198D01*
X154446756Y-109609578D01*
X154384733Y-109516227D01*
X154305760Y-109436700D01*
X154212844Y-109374028D01*
X154109525Y-109330596D01*
X153999737Y-109308060D01*
X153887663Y-109307277D01*
X153777571Y-109328279D01*
X153673655Y-109370263D01*
X153579873Y-109431632D01*
X153499797Y-109510049D01*
X153436478Y-109602525D01*
X153392326Y-109705539D01*
X153369024Y-109815166D01*
X153367880Y-109897061D01*
X152224440Y-111040501D01*
X149344491Y-111040501D01*
X149349321Y-111033654D01*
X149394906Y-110931266D01*
X149419737Y-110821974D01*
X149420979Y-110732969D01*
X149512248Y-110641700D01*
X152000000Y-110641700D01*
X152036021Y-110638168D01*
X152072053Y-110635016D01*
X152074032Y-110634441D01*
X152076082Y-110634240D01*
X152110721Y-110623782D01*
X152145465Y-110613688D01*
X152147293Y-110612740D01*
X152149265Y-110612145D01*
X152181206Y-110595161D01*
X152213335Y-110578507D01*
X152214945Y-110577221D01*
X152216763Y-110576255D01*
X152244778Y-110553407D01*
X152273080Y-110530814D01*
X152275950Y-110527984D01*
X152276005Y-110527939D01*
X152276047Y-110527888D01*
X152276974Y-110526974D01*
X152476974Y-110326974D01*
X152499935Y-110299021D01*
X152523197Y-110271298D01*
X152524191Y-110269490D01*
X152525497Y-110267900D01*
X152542609Y-110235987D01*
X152560025Y-110204307D01*
X152560646Y-110202349D01*
X152561622Y-110200529D01*
X152572216Y-110165876D01*
X152583140Y-110131439D01*
X152583370Y-110129393D01*
X152583972Y-110127422D01*
X152587630Y-110091413D01*
X152591662Y-110055469D01*
X152591690Y-110051446D01*
X152591698Y-110051367D01*
X152591691Y-110051289D01*
X152591700Y-110050000D01*
X152591700Y-109966200D01*
X152634716Y-109925237D01*
X152699321Y-109833654D01*
X152744906Y-109731266D01*
X152769737Y-109621974D01*
X152771524Y-109493962D01*
X152749755Y-109384019D01*
X152707046Y-109280399D01*
X152645023Y-109187048D01*
X152566050Y-109107521D01*
X152473134Y-109044849D01*
X152369815Y-109001417D01*
X152260027Y-108978881D01*
X152147953Y-108978098D01*
X152037861Y-108999100D01*
X151933945Y-109041084D01*
X151840163Y-109102453D01*
X151760087Y-109180870D01*
X151696768Y-109273346D01*
X151652616Y-109376360D01*
X151629314Y-109485987D01*
X151627749Y-109598053D01*
X151647981Y-109708289D01*
X151689239Y-109812495D01*
X151718758Y-109858300D01*
X149512247Y-109858300D01*
X147539114Y-107885166D01*
X149165887Y-107885166D01*
X149226880Y-108125525D01*
X149461314Y-108254726D01*
X149716449Y-108335710D01*
X149982482Y-108365362D01*
X150249188Y-108342545D01*
X150506317Y-108268134D01*
X150743989Y-108144990D01*
X150773120Y-108125525D01*
X150834113Y-107885166D01*
X150000000Y-107051053D01*
X149165887Y-107885166D01*
X147539114Y-107885166D01*
X147070511Y-107416563D01*
X147070979Y-107382969D01*
X147081773Y-107372175D01*
X147471465Y-106982482D01*
X148634638Y-106982482D01*
X148657455Y-107249188D01*
X148731866Y-107506317D01*
X148855010Y-107743989D01*
X148874475Y-107773120D01*
X149114834Y-107834113D01*
X149948947Y-107000000D01*
X150051053Y-107000000D01*
X150885166Y-107834113D01*
X151125525Y-107773120D01*
X151254726Y-107538686D01*
X151283494Y-107448053D01*
X152927749Y-107448053D01*
X152947981Y-107558289D01*
X152989239Y-107662495D01*
X153049952Y-107756703D01*
X153127807Y-107837325D01*
X153219839Y-107901289D01*
X153322542Y-107946158D01*
X153432005Y-107970225D01*
X153544057Y-107972572D01*
X153654431Y-107953111D01*
X153758923Y-107912581D01*
X153853553Y-107852527D01*
X153917428Y-107791700D01*
X154280908Y-107791700D01*
X154316921Y-107788169D01*
X154352962Y-107785016D01*
X154354942Y-107784441D01*
X154356990Y-107784240D01*
X154391663Y-107773772D01*
X154426373Y-107763687D01*
X154428197Y-107762742D01*
X154430173Y-107762145D01*
X154462150Y-107745142D01*
X154494243Y-107728507D01*
X154495853Y-107727221D01*
X154497671Y-107726255D01*
X154525686Y-107703407D01*
X154553988Y-107680814D01*
X154556853Y-107677988D01*
X154556913Y-107677939D01*
X154556959Y-107677884D01*
X154557882Y-107676973D01*
X154745564Y-107489290D01*
X155402410Y-107489290D01*
X155438431Y-107485758D01*
X155456393Y-107484187D01*
X155454589Y-107488396D01*
X155431287Y-107598023D01*
X155430143Y-107679918D01*
X154901761Y-108208300D01*
X153916475Y-108208300D01*
X153866050Y-108157521D01*
X153773134Y-108094849D01*
X153669815Y-108051417D01*
X153560027Y-108028881D01*
X153447953Y-108028098D01*
X153337861Y-108049100D01*
X153233945Y-108091084D01*
X153140163Y-108152453D01*
X153060087Y-108230870D01*
X152996768Y-108323346D01*
X152952616Y-108426360D01*
X152929314Y-108535987D01*
X152927749Y-108648053D01*
X152947981Y-108758289D01*
X152989239Y-108862495D01*
X153049952Y-108956703D01*
X153127807Y-109037325D01*
X153219839Y-109101289D01*
X153322542Y-109146158D01*
X153432005Y-109170225D01*
X153544057Y-109172572D01*
X153654431Y-109153111D01*
X153758923Y-109112581D01*
X153853553Y-109052527D01*
X153917428Y-108991700D01*
X155064009Y-108991700D01*
X155100030Y-108988168D01*
X155136062Y-108985016D01*
X155138041Y-108984441D01*
X155140091Y-108984240D01*
X155174730Y-108973782D01*
X155209474Y-108963688D01*
X155211302Y-108962740D01*
X155213274Y-108962145D01*
X155245215Y-108945161D01*
X155277344Y-108928507D01*
X155278954Y-108927221D01*
X155280772Y-108926255D01*
X155308787Y-108903407D01*
X155337089Y-108880814D01*
X155339959Y-108877984D01*
X155340014Y-108877939D01*
X155340056Y-108877888D01*
X155340983Y-108876974D01*
X155984634Y-108233322D01*
X156046030Y-108234608D01*
X156156404Y-108215147D01*
X156260896Y-108174617D01*
X156355526Y-108114563D01*
X156436689Y-108037273D01*
X156501294Y-107945690D01*
X156546879Y-107843302D01*
X156571710Y-107734010D01*
X156573497Y-107605998D01*
X156551728Y-107496055D01*
X156509019Y-107392435D01*
X156446996Y-107299084D01*
X156368023Y-107219557D01*
X156275107Y-107156885D01*
X156171788Y-107113453D01*
X156062000Y-107090917D01*
X155963717Y-107090230D01*
X156026973Y-107026974D01*
X156049906Y-106999055D01*
X156073197Y-106971298D01*
X156074191Y-106969489D01*
X156075496Y-106967901D01*
X156092580Y-106936040D01*
X156110025Y-106904307D01*
X156110648Y-106902344D01*
X156111621Y-106900529D01*
X156122192Y-106865950D01*
X156133140Y-106831439D01*
X156133370Y-106829389D01*
X156133971Y-106827423D01*
X156137620Y-106791498D01*
X156141662Y-106755469D01*
X156141690Y-106751437D01*
X156141697Y-106751368D01*
X156141691Y-106751304D01*
X156141700Y-106750000D01*
X156141700Y-104466200D01*
X156184716Y-104425237D01*
X156249321Y-104333654D01*
X156294906Y-104231266D01*
X156319737Y-104121974D01*
X156321524Y-103993962D01*
X156299755Y-103884019D01*
X156257046Y-103780399D01*
X156195023Y-103687048D01*
X156116050Y-103607521D01*
X156023134Y-103544849D01*
X155919815Y-103501417D01*
X155810027Y-103478881D01*
X155697953Y-103478098D01*
X155587861Y-103499100D01*
X155483945Y-103541084D01*
X155390163Y-103602453D01*
X155310087Y-103680870D01*
X155246768Y-103773346D01*
X155202616Y-103876360D01*
X155179314Y-103985987D01*
X155177749Y-104098053D01*
X155197981Y-104208289D01*
X155239239Y-104312495D01*
X155299952Y-104406703D01*
X155358300Y-104467125D01*
X155358300Y-106587753D01*
X155240162Y-106705890D01*
X154583317Y-106705890D01*
X154547345Y-106709417D01*
X154511263Y-106712574D01*
X154509283Y-106713149D01*
X154507235Y-106713350D01*
X154472608Y-106723804D01*
X154437852Y-106733902D01*
X154436024Y-106734850D01*
X154434052Y-106735445D01*
X154402111Y-106752429D01*
X154369982Y-106769083D01*
X154368372Y-106770369D01*
X154366554Y-106771335D01*
X154338539Y-106794183D01*
X154310237Y-106816776D01*
X154307367Y-106819606D01*
X154307312Y-106819651D01*
X154307270Y-106819702D01*
X154306343Y-106820616D01*
X154118660Y-107008300D01*
X153916475Y-107008300D01*
X153866050Y-106957521D01*
X153773134Y-106894849D01*
X153669815Y-106851417D01*
X153560027Y-106828881D01*
X153447953Y-106828098D01*
X153337861Y-106849100D01*
X153233945Y-106891084D01*
X153140163Y-106952453D01*
X153060087Y-107030870D01*
X152996768Y-107123346D01*
X152952616Y-107226360D01*
X152929314Y-107335987D01*
X152927749Y-107448053D01*
X151283494Y-107448053D01*
X151335710Y-107283551D01*
X151365362Y-107017518D01*
X151342545Y-106750812D01*
X151268134Y-106493683D01*
X151144990Y-106256011D01*
X151125525Y-106226880D01*
X150885166Y-106165887D01*
X150051053Y-107000000D01*
X149948947Y-107000000D01*
X149114834Y-106165887D01*
X148874475Y-106226880D01*
X148745274Y-106461314D01*
X148664290Y-106716449D01*
X148634638Y-106982482D01*
X147471465Y-106982482D01*
X148276973Y-106176974D01*
X148299906Y-106149055D01*
X148323197Y-106121298D01*
X148324191Y-106119489D01*
X148325496Y-106117901D01*
X148342580Y-106086040D01*
X148360025Y-106054307D01*
X148360648Y-106052344D01*
X148361621Y-106050529D01*
X148372192Y-106015950D01*
X148383140Y-105981439D01*
X148383370Y-105979389D01*
X148383971Y-105977423D01*
X148387620Y-105941498D01*
X148391662Y-105905469D01*
X148391690Y-105901437D01*
X148391697Y-105901368D01*
X148391691Y-105901304D01*
X148391700Y-105900000D01*
X148391700Y-104595634D01*
X149520245Y-105724179D01*
X149493683Y-105731866D01*
X149256011Y-105855010D01*
X149226880Y-105874475D01*
X149165887Y-106114834D01*
X150000000Y-106948947D01*
X150834113Y-106114834D01*
X150777491Y-105891700D01*
X153133750Y-105891700D01*
X153177809Y-105937325D01*
X153269841Y-106001289D01*
X153372544Y-106046158D01*
X153411856Y-106054801D01*
X153402616Y-106076360D01*
X153379314Y-106185987D01*
X153377749Y-106298053D01*
X153397981Y-106408289D01*
X153439239Y-106512495D01*
X153499952Y-106606703D01*
X153577807Y-106687325D01*
X153669839Y-106751289D01*
X153772542Y-106796158D01*
X153882005Y-106820225D01*
X153994057Y-106822572D01*
X154104431Y-106803111D01*
X154208923Y-106762581D01*
X154303553Y-106702527D01*
X154384716Y-106625237D01*
X154449321Y-106533654D01*
X154494906Y-106431266D01*
X154519737Y-106321974D01*
X154520979Y-106232969D01*
X154531773Y-106222175D01*
X154554752Y-106194200D01*
X154577996Y-106166499D01*
X154578988Y-106164694D01*
X154580296Y-106163102D01*
X154597420Y-106131167D01*
X154614824Y-106099508D01*
X154615445Y-106097550D01*
X154616421Y-106095730D01*
X154627015Y-106061077D01*
X154637939Y-106026640D01*
X154638169Y-106024594D01*
X154638771Y-106022623D01*
X154642429Y-105986614D01*
X154646461Y-105950670D01*
X154646489Y-105946647D01*
X154646497Y-105946568D01*
X154646490Y-105946494D01*
X154646499Y-105945201D01*
X154646499Y-104754799D01*
X154642967Y-104718782D01*
X154639815Y-104682745D01*
X154639240Y-104680765D01*
X154639039Y-104678717D01*
X154628585Y-104644090D01*
X154618487Y-104609334D01*
X154617539Y-104607506D01*
X154616944Y-104605534D01*
X154599960Y-104573593D01*
X154583306Y-104541464D01*
X154582020Y-104539854D01*
X154581054Y-104538036D01*
X154558206Y-104510021D01*
X154535613Y-104481719D01*
X154532783Y-104478849D01*
X154532738Y-104478794D01*
X154532687Y-104478752D01*
X154531773Y-104477825D01*
X153026974Y-102973026D01*
X152998999Y-102950047D01*
X152971298Y-102926803D01*
X152969493Y-102925811D01*
X152967901Y-102924503D01*
X152936001Y-102907399D01*
X152904307Y-102889975D01*
X152902345Y-102889352D01*
X152900529Y-102888379D01*
X152865909Y-102877794D01*
X152831439Y-102866860D01*
X152829394Y-102866631D01*
X152827423Y-102866028D01*
X152791403Y-102862369D01*
X152755469Y-102858338D01*
X152751447Y-102858310D01*
X152751368Y-102858302D01*
X152751294Y-102858309D01*
X152750000Y-102858300D01*
X152695648Y-102858300D01*
X153232661Y-102321286D01*
X153294057Y-102322572D01*
X153404431Y-102303111D01*
X153508923Y-102262581D01*
X153603553Y-102202527D01*
X153684716Y-102125237D01*
X153749321Y-102033654D01*
X153794906Y-101931266D01*
X153819737Y-101821974D01*
X153821524Y-101693962D01*
X153799755Y-101584019D01*
X153757046Y-101480399D01*
X153695023Y-101387048D01*
X153649991Y-101341700D01*
X157658300Y-101341700D01*
X157658300Y-113658300D01*
G36*
X142786100Y-113413900D02*
X142806100Y-113413900D01*
X142806100Y-113486100D01*
X142786100Y-113486100D01*
X142786100Y-113506100D01*
X142713900Y-113506100D01*
X142713900Y-113486100D01*
X142693900Y-113486100D01*
X142693900Y-113413900D01*
X142713900Y-113413900D01*
X142713900Y-113393900D01*
X142786100Y-113393900D01*
X142786100Y-113413900D01*
X142786100Y-113413900D01*
G37*
X142786100Y-113413900D02*
X142806100Y-113413900D01*
X142806100Y-113486100D01*
X142786100Y-113486100D01*
X142786100Y-113506100D01*
X142713900Y-113506100D01*
X142713900Y-113486100D01*
X142693900Y-113486100D01*
X142693900Y-113413900D01*
X142713900Y-113413900D01*
X142713900Y-113393900D01*
X142786100Y-113393900D01*
X142786100Y-113413900D01*
G36*
X152810087Y-101380870D02*
X152746768Y-101473346D01*
X152702616Y-101576360D01*
X152679314Y-101685987D01*
X152678170Y-101767882D01*
X151587752Y-102858300D01*
X149916475Y-102858300D01*
X149866050Y-102807521D01*
X149773134Y-102744849D01*
X149669815Y-102701417D01*
X149560027Y-102678881D01*
X149482286Y-102678338D01*
X149376974Y-102573026D01*
X149348999Y-102550047D01*
X149321298Y-102526803D01*
X149319493Y-102525811D01*
X149317901Y-102524503D01*
X149286001Y-102507399D01*
X149254307Y-102489975D01*
X149252345Y-102489352D01*
X149250529Y-102488379D01*
X149215909Y-102477794D01*
X149181439Y-102466860D01*
X149179394Y-102466631D01*
X149177423Y-102466028D01*
X149141403Y-102462369D01*
X149105469Y-102458338D01*
X149101447Y-102458310D01*
X149101368Y-102458302D01*
X149101294Y-102458309D01*
X149100000Y-102458300D01*
X147500000Y-102458300D01*
X147464023Y-102461828D01*
X147427947Y-102464984D01*
X147425968Y-102465559D01*
X147423918Y-102465760D01*
X147389266Y-102476222D01*
X147354536Y-102486312D01*
X147352709Y-102487259D01*
X147350735Y-102487855D01*
X147318775Y-102504849D01*
X147286665Y-102521493D01*
X147285055Y-102522779D01*
X147283237Y-102523745D01*
X147255198Y-102546613D01*
X147226921Y-102569186D01*
X147224056Y-102572011D01*
X147223995Y-102572061D01*
X147223948Y-102572118D01*
X147223027Y-102573026D01*
X146677825Y-103118227D01*
X146654846Y-103146202D01*
X146631602Y-103173903D01*
X146630610Y-103175708D01*
X146629302Y-103177300D01*
X146612198Y-103209200D01*
X146594774Y-103240894D01*
X146594151Y-103242856D01*
X146593178Y-103244672D01*
X146582593Y-103279292D01*
X146571659Y-103313762D01*
X146571430Y-103315807D01*
X146570827Y-103317778D01*
X146567168Y-103353798D01*
X146563137Y-103389732D01*
X146563109Y-103393754D01*
X146563101Y-103393833D01*
X146563108Y-103393907D01*
X146563099Y-103395201D01*
X146563099Y-103684747D01*
X146487861Y-103699100D01*
X146383945Y-103741084D01*
X146290163Y-103802453D01*
X146210087Y-103880870D01*
X146146768Y-103973346D01*
X146102616Y-104076360D01*
X146079314Y-104185987D01*
X146077749Y-104298053D01*
X146097981Y-104408289D01*
X146139239Y-104512495D01*
X146199952Y-104606703D01*
X146277807Y-104687325D01*
X146369839Y-104751289D01*
X146472542Y-104796158D01*
X146582005Y-104820225D01*
X146694057Y-104822572D01*
X146804431Y-104803111D01*
X146908923Y-104762581D01*
X147003553Y-104702527D01*
X147084716Y-104625237D01*
X147149321Y-104533654D01*
X147194906Y-104431266D01*
X147219737Y-104321974D01*
X147220979Y-104232969D01*
X147231773Y-104222175D01*
X147254752Y-104194200D01*
X147277996Y-104166499D01*
X147278988Y-104164694D01*
X147280296Y-104163102D01*
X147297420Y-104131167D01*
X147314824Y-104099508D01*
X147315445Y-104097550D01*
X147316421Y-104095730D01*
X147327015Y-104061077D01*
X147337939Y-104026640D01*
X147338169Y-104024594D01*
X147338771Y-104022623D01*
X147342429Y-103986614D01*
X147346461Y-103950670D01*
X147346489Y-103946647D01*
X147346497Y-103946568D01*
X147346490Y-103946494D01*
X147346499Y-103945201D01*
X147346499Y-103557449D01*
X147471379Y-103432568D01*
X147452616Y-103476346D01*
X147429314Y-103585973D01*
X147427749Y-103698039D01*
X147447981Y-103808275D01*
X147489239Y-103912481D01*
X147549952Y-104006689D01*
X147608300Y-104067111D01*
X147608300Y-105737753D01*
X146527825Y-106818227D01*
X146517468Y-106828584D01*
X146447953Y-106828098D01*
X146337861Y-106849100D01*
X146233945Y-106891084D01*
X146140163Y-106952453D01*
X146060087Y-107030870D01*
X145996768Y-107123346D01*
X145952616Y-107226360D01*
X145929314Y-107335987D01*
X145928723Y-107378313D01*
X145897953Y-107378098D01*
X145787861Y-107399100D01*
X145683945Y-107441084D01*
X145590163Y-107502453D01*
X145510087Y-107580870D01*
X145446768Y-107673346D01*
X145402616Y-107776360D01*
X145379314Y-107885987D01*
X145377749Y-107998053D01*
X145397981Y-108108289D01*
X145439239Y-108212495D01*
X145499952Y-108306703D01*
X145530122Y-108337946D01*
X145507953Y-108352453D01*
X145427877Y-108430870D01*
X145364558Y-108523346D01*
X145338377Y-108584429D01*
X144570511Y-107816563D01*
X144571524Y-107743962D01*
X144549755Y-107634019D01*
X144507046Y-107530399D01*
X144445023Y-107437048D01*
X144366050Y-107357521D01*
X144273134Y-107294849D01*
X144234595Y-107278649D01*
X144237705Y-107271664D01*
X144262536Y-107162372D01*
X144264323Y-107034360D01*
X144242554Y-106924417D01*
X144199845Y-106820797D01*
X144137822Y-106727446D01*
X144058849Y-106647919D01*
X143965933Y-106585247D01*
X143862614Y-106541815D01*
X143752826Y-106519279D01*
X143640752Y-106518496D01*
X143530660Y-106539498D01*
X143426744Y-106581482D01*
X143332962Y-106642851D01*
X143252886Y-106721268D01*
X143189567Y-106813744D01*
X143145415Y-106916758D01*
X143122113Y-107026385D01*
X143120969Y-107108280D01*
X143111026Y-107118223D01*
X143088047Y-107146198D01*
X143064803Y-107173899D01*
X143063811Y-107175704D01*
X143062503Y-107177296D01*
X143045399Y-107209196D01*
X143027975Y-107240890D01*
X143027352Y-107242852D01*
X143026379Y-107244668D01*
X143015794Y-107279288D01*
X143004860Y-107313758D01*
X143004631Y-107315803D01*
X143004028Y-107317774D01*
X143000369Y-107353794D01*
X142996338Y-107389728D01*
X142996310Y-107393750D01*
X142996302Y-107393829D01*
X142996309Y-107393903D01*
X142996300Y-107395197D01*
X142996300Y-108068906D01*
X142999832Y-108104927D01*
X143002984Y-108140959D01*
X143003559Y-108142938D01*
X143003760Y-108144988D01*
X143014218Y-108179627D01*
X143024312Y-108214371D01*
X143025260Y-108216199D01*
X143025855Y-108218171D01*
X143042839Y-108250112D01*
X143059493Y-108282241D01*
X143060779Y-108283851D01*
X143061745Y-108285669D01*
X143084593Y-108313684D01*
X143107186Y-108341986D01*
X143110016Y-108344856D01*
X143110061Y-108344911D01*
X143110112Y-108344953D01*
X143111026Y-108345880D01*
X145268866Y-110503719D01*
X145268866Y-111629509D01*
X145272398Y-111665530D01*
X145275550Y-111701562D01*
X145276125Y-111703541D01*
X145276326Y-111705591D01*
X145286784Y-111740230D01*
X145296878Y-111774974D01*
X145297826Y-111776802D01*
X145298421Y-111778774D01*
X145315405Y-111810715D01*
X145332059Y-111842844D01*
X145333345Y-111844454D01*
X145334311Y-111846272D01*
X145357159Y-111874287D01*
X145379752Y-111902589D01*
X145382582Y-111905459D01*
X145382627Y-111905514D01*
X145382678Y-111905556D01*
X145383592Y-111906483D01*
X146135410Y-112658300D01*
X145850000Y-112658300D01*
X145813983Y-112661832D01*
X145777946Y-112664984D01*
X145775966Y-112665559D01*
X145773918Y-112665760D01*
X145739245Y-112676228D01*
X145704535Y-112686313D01*
X145702711Y-112687258D01*
X145700735Y-112687855D01*
X145668758Y-112704858D01*
X145636665Y-112721493D01*
X145635055Y-112722779D01*
X145633237Y-112723745D01*
X145605222Y-112746593D01*
X145576920Y-112769186D01*
X145574055Y-112772012D01*
X145573995Y-112772061D01*
X145573949Y-112772116D01*
X145573026Y-112773027D01*
X144987752Y-113358300D01*
X144212247Y-113358300D01*
X144191700Y-113337752D01*
X144191700Y-111466200D01*
X144234716Y-111425237D01*
X144299321Y-111333654D01*
X144344906Y-111231266D01*
X144369737Y-111121974D01*
X144371524Y-110993962D01*
X144349755Y-110884019D01*
X144307046Y-110780399D01*
X144245023Y-110687048D01*
X144166050Y-110607521D01*
X144073134Y-110544849D01*
X143969815Y-110501417D01*
X143860027Y-110478881D01*
X143747953Y-110478098D01*
X143637861Y-110499100D01*
X143533945Y-110541084D01*
X143440163Y-110602453D01*
X143372312Y-110668899D01*
X143357231Y-110650142D01*
X143271789Y-110578448D01*
X143174048Y-110524714D01*
X143067732Y-110490989D01*
X142956889Y-110478556D01*
X142948910Y-110478500D01*
X142551090Y-110478500D01*
X142440085Y-110489384D01*
X142341700Y-110519088D01*
X142341700Y-101341700D01*
X152850086Y-101341700D01*
X152810087Y-101380870D01*
X152810087Y-101380870D01*
G37*
X152810087Y-101380870D02*
X152746768Y-101473346D01*
X152702616Y-101576360D01*
X152679314Y-101685987D01*
X152678170Y-101767882D01*
X151587752Y-102858300D01*
X149916475Y-102858300D01*
X149866050Y-102807521D01*
X149773134Y-102744849D01*
X149669815Y-102701417D01*
X149560027Y-102678881D01*
X149482286Y-102678338D01*
X149376974Y-102573026D01*
X149348999Y-102550047D01*
X149321298Y-102526803D01*
X149319493Y-102525811D01*
X149317901Y-102524503D01*
X149286001Y-102507399D01*
X149254307Y-102489975D01*
X149252345Y-102489352D01*
X149250529Y-102488379D01*
X149215909Y-102477794D01*
X149181439Y-102466860D01*
X149179394Y-102466631D01*
X149177423Y-102466028D01*
X149141403Y-102462369D01*
X149105469Y-102458338D01*
X149101447Y-102458310D01*
X149101368Y-102458302D01*
X149101294Y-102458309D01*
X149100000Y-102458300D01*
X147500000Y-102458300D01*
X147464023Y-102461828D01*
X147427947Y-102464984D01*
X147425968Y-102465559D01*
X147423918Y-102465760D01*
X147389266Y-102476222D01*
X147354536Y-102486312D01*
X147352709Y-102487259D01*
X147350735Y-102487855D01*
X147318775Y-102504849D01*
X147286665Y-102521493D01*
X147285055Y-102522779D01*
X147283237Y-102523745D01*
X147255198Y-102546613D01*
X147226921Y-102569186D01*
X147224056Y-102572011D01*
X147223995Y-102572061D01*
X147223948Y-102572118D01*
X147223027Y-102573026D01*
X146677825Y-103118227D01*
X146654846Y-103146202D01*
X146631602Y-103173903D01*
X146630610Y-103175708D01*
X146629302Y-103177300D01*
X146612198Y-103209200D01*
X146594774Y-103240894D01*
X146594151Y-103242856D01*
X146593178Y-103244672D01*
X146582593Y-103279292D01*
X146571659Y-103313762D01*
X146571430Y-103315807D01*
X146570827Y-103317778D01*
X146567168Y-103353798D01*
X146563137Y-103389732D01*
X146563109Y-103393754D01*
X146563101Y-103393833D01*
X146563108Y-103393907D01*
X146563099Y-103395201D01*
X146563099Y-103684747D01*
X146487861Y-103699100D01*
X146383945Y-103741084D01*
X146290163Y-103802453D01*
X146210087Y-103880870D01*
X146146768Y-103973346D01*
X146102616Y-104076360D01*
X146079314Y-104185987D01*
X146077749Y-104298053D01*
X146097981Y-104408289D01*
X146139239Y-104512495D01*
X146199952Y-104606703D01*
X146277807Y-104687325D01*
X146369839Y-104751289D01*
X146472542Y-104796158D01*
X146582005Y-104820225D01*
X146694057Y-104822572D01*
X146804431Y-104803111D01*
X146908923Y-104762581D01*
X147003553Y-104702527D01*
X147084716Y-104625237D01*
X147149321Y-104533654D01*
X147194906Y-104431266D01*
X147219737Y-104321974D01*
X147220979Y-104232969D01*
X147231773Y-104222175D01*
X147254752Y-104194200D01*
X147277996Y-104166499D01*
X147278988Y-104164694D01*
X147280296Y-104163102D01*
X147297420Y-104131167D01*
X147314824Y-104099508D01*
X147315445Y-104097550D01*
X147316421Y-104095730D01*
X147327015Y-104061077D01*
X147337939Y-104026640D01*
X147338169Y-104024594D01*
X147338771Y-104022623D01*
X147342429Y-103986614D01*
X147346461Y-103950670D01*
X147346489Y-103946647D01*
X147346497Y-103946568D01*
X147346490Y-103946494D01*
X147346499Y-103945201D01*
X147346499Y-103557449D01*
X147471379Y-103432568D01*
X147452616Y-103476346D01*
X147429314Y-103585973D01*
X147427749Y-103698039D01*
X147447981Y-103808275D01*
X147489239Y-103912481D01*
X147549952Y-104006689D01*
X147608300Y-104067111D01*
X147608300Y-105737753D01*
X146527825Y-106818227D01*
X146517468Y-106828584D01*
X146447953Y-106828098D01*
X146337861Y-106849100D01*
X146233945Y-106891084D01*
X146140163Y-106952453D01*
X146060087Y-107030870D01*
X145996768Y-107123346D01*
X145952616Y-107226360D01*
X145929314Y-107335987D01*
X145928723Y-107378313D01*
X145897953Y-107378098D01*
X145787861Y-107399100D01*
X145683945Y-107441084D01*
X145590163Y-107502453D01*
X145510087Y-107580870D01*
X145446768Y-107673346D01*
X145402616Y-107776360D01*
X145379314Y-107885987D01*
X145377749Y-107998053D01*
X145397981Y-108108289D01*
X145439239Y-108212495D01*
X145499952Y-108306703D01*
X145530122Y-108337946D01*
X145507953Y-108352453D01*
X145427877Y-108430870D01*
X145364558Y-108523346D01*
X145338377Y-108584429D01*
X144570511Y-107816563D01*
X144571524Y-107743962D01*
X144549755Y-107634019D01*
X144507046Y-107530399D01*
X144445023Y-107437048D01*
X144366050Y-107357521D01*
X144273134Y-107294849D01*
X144234595Y-107278649D01*
X144237705Y-107271664D01*
X144262536Y-107162372D01*
X144264323Y-107034360D01*
X144242554Y-106924417D01*
X144199845Y-106820797D01*
X144137822Y-106727446D01*
X144058849Y-106647919D01*
X143965933Y-106585247D01*
X143862614Y-106541815D01*
X143752826Y-106519279D01*
X143640752Y-106518496D01*
X143530660Y-106539498D01*
X143426744Y-106581482D01*
X143332962Y-106642851D01*
X143252886Y-106721268D01*
X143189567Y-106813744D01*
X143145415Y-106916758D01*
X143122113Y-107026385D01*
X143120969Y-107108280D01*
X143111026Y-107118223D01*
X143088047Y-107146198D01*
X143064803Y-107173899D01*
X143063811Y-107175704D01*
X143062503Y-107177296D01*
X143045399Y-107209196D01*
X143027975Y-107240890D01*
X143027352Y-107242852D01*
X143026379Y-107244668D01*
X143015794Y-107279288D01*
X143004860Y-107313758D01*
X143004631Y-107315803D01*
X143004028Y-107317774D01*
X143000369Y-107353794D01*
X142996338Y-107389728D01*
X142996310Y-107393750D01*
X142996302Y-107393829D01*
X142996309Y-107393903D01*
X142996300Y-107395197D01*
X142996300Y-108068906D01*
X142999832Y-108104927D01*
X143002984Y-108140959D01*
X143003559Y-108142938D01*
X143003760Y-108144988D01*
X143014218Y-108179627D01*
X143024312Y-108214371D01*
X143025260Y-108216199D01*
X143025855Y-108218171D01*
X143042839Y-108250112D01*
X143059493Y-108282241D01*
X143060779Y-108283851D01*
X143061745Y-108285669D01*
X143084593Y-108313684D01*
X143107186Y-108341986D01*
X143110016Y-108344856D01*
X143110061Y-108344911D01*
X143110112Y-108344953D01*
X143111026Y-108345880D01*
X145268866Y-110503719D01*
X145268866Y-111629509D01*
X145272398Y-111665530D01*
X145275550Y-111701562D01*
X145276125Y-111703541D01*
X145276326Y-111705591D01*
X145286784Y-111740230D01*
X145296878Y-111774974D01*
X145297826Y-111776802D01*
X145298421Y-111778774D01*
X145315405Y-111810715D01*
X145332059Y-111842844D01*
X145333345Y-111844454D01*
X145334311Y-111846272D01*
X145357159Y-111874287D01*
X145379752Y-111902589D01*
X145382582Y-111905459D01*
X145382627Y-111905514D01*
X145382678Y-111905556D01*
X145383592Y-111906483D01*
X146135410Y-112658300D01*
X145850000Y-112658300D01*
X145813983Y-112661832D01*
X145777946Y-112664984D01*
X145775966Y-112665559D01*
X145773918Y-112665760D01*
X145739245Y-112676228D01*
X145704535Y-112686313D01*
X145702711Y-112687258D01*
X145700735Y-112687855D01*
X145668758Y-112704858D01*
X145636665Y-112721493D01*
X145635055Y-112722779D01*
X145633237Y-112723745D01*
X145605222Y-112746593D01*
X145576920Y-112769186D01*
X145574055Y-112772012D01*
X145573995Y-112772061D01*
X145573949Y-112772116D01*
X145573026Y-112773027D01*
X144987752Y-113358300D01*
X144212247Y-113358300D01*
X144191700Y-113337752D01*
X144191700Y-111466200D01*
X144234716Y-111425237D01*
X144299321Y-111333654D01*
X144344906Y-111231266D01*
X144369737Y-111121974D01*
X144371524Y-110993962D01*
X144349755Y-110884019D01*
X144307046Y-110780399D01*
X144245023Y-110687048D01*
X144166050Y-110607521D01*
X144073134Y-110544849D01*
X143969815Y-110501417D01*
X143860027Y-110478881D01*
X143747953Y-110478098D01*
X143637861Y-110499100D01*
X143533945Y-110541084D01*
X143440163Y-110602453D01*
X143372312Y-110668899D01*
X143357231Y-110650142D01*
X143271789Y-110578448D01*
X143174048Y-110524714D01*
X143067732Y-110490989D01*
X142956889Y-110478556D01*
X142948910Y-110478500D01*
X142551090Y-110478500D01*
X142440085Y-110489384D01*
X142341700Y-110519088D01*
X142341700Y-101341700D01*
X152850086Y-101341700D01*
X152810087Y-101380870D01*
G36*
X148735974Y-110189922D02*
X148687861Y-110199100D01*
X148583945Y-110241084D01*
X148490163Y-110302453D01*
X148410087Y-110380870D01*
X148346768Y-110473346D01*
X148302616Y-110576360D01*
X148279314Y-110685987D01*
X148277749Y-110798053D01*
X148297981Y-110908289D01*
X148339239Y-111012495D01*
X148357288Y-111040501D01*
X147332790Y-111040501D01*
X147259499Y-110967209D01*
X147259499Y-108867799D01*
X147255971Y-108831822D01*
X147252815Y-108795746D01*
X147252240Y-108793767D01*
X147252039Y-108791717D01*
X147241577Y-108757065D01*
X147231487Y-108722335D01*
X147230540Y-108720508D01*
X147229944Y-108718534D01*
X147212950Y-108686574D01*
X147196306Y-108654464D01*
X147195020Y-108652854D01*
X147194054Y-108651036D01*
X147180636Y-108634583D01*
X148735974Y-110189922D01*
X148735974Y-110189922D01*
G37*
X148735974Y-110189922D02*
X148687861Y-110199100D01*
X148583945Y-110241084D01*
X148490163Y-110302453D01*
X148410087Y-110380870D01*
X148346768Y-110473346D01*
X148302616Y-110576360D01*
X148279314Y-110685987D01*
X148277749Y-110798053D01*
X148297981Y-110908289D01*
X148339239Y-111012495D01*
X148357288Y-111040501D01*
X147332790Y-111040501D01*
X147259499Y-110967209D01*
X147259499Y-108867799D01*
X147255971Y-108831822D01*
X147252815Y-108795746D01*
X147252240Y-108793767D01*
X147252039Y-108791717D01*
X147241577Y-108757065D01*
X147231487Y-108722335D01*
X147230540Y-108720508D01*
X147229944Y-108718534D01*
X147212950Y-108686574D01*
X147196306Y-108654464D01*
X147195020Y-108652854D01*
X147194054Y-108651036D01*
X147180636Y-108634583D01*
X148735974Y-110189922D01*
M02*
