G04 #@! TF.FileFunction,Copper,L1,Top,Signal*
%FSLAX46Y46*%
G04 Gerber Fmt 4.6, Leading zero omitted, Abs format (unit mm)*
G04 Created by KiCad (PCBNEW 4.0.2-stable) date 23/09/2017 10:35:29 PM*
%MOMM*%
G01*
G04 APERTURE LIST*
%ADD10C,0.100000*%
%ADD11O,0.900000X0.250000*%
%ADD12O,0.250000X0.900000*%
%ADD13R,3.500000X3.500000*%
%ADD14C,1.524000*%
%ADD15R,0.850000X0.250000*%
%ADD16R,0.800000X1.000000*%
%ADD17R,1.150000X1.000000*%
%ADD18R,1.000000X1.250000*%
%ADD19R,0.750000X0.800000*%
%ADD20R,0.900000X0.500000*%
%ADD21R,0.500000X0.900000*%
%ADD22O,0.609600X1.000000*%
%ADD23O,1.000000X0.609600*%
%ADD24C,0.609600*%
%ADD25C,0.250000*%
%ADD26C,0.152400*%
%ADD27C,0.203200*%
G04 APERTURE END LIST*
D10*
D11*
X147450000Y-105500000D03*
X147450000Y-106000000D03*
X147450000Y-106500000D03*
X147450000Y-107000000D03*
X147450000Y-107500000D03*
X147450000Y-108000000D03*
X147450000Y-108500000D03*
D12*
X148500000Y-109550000D03*
X149000000Y-109550000D03*
X149500000Y-109550000D03*
X150000000Y-109550000D03*
X150500000Y-109550000D03*
X151000000Y-109550000D03*
X151500000Y-109550000D03*
D11*
X152550000Y-108500000D03*
X152550000Y-108000000D03*
X152550000Y-107500000D03*
X152550000Y-107000000D03*
X152550000Y-106500000D03*
X152550000Y-106000000D03*
X152550000Y-105500000D03*
D12*
X151500000Y-104450000D03*
X151000000Y-104450000D03*
X150500000Y-104450000D03*
X150000000Y-104450000D03*
X149500000Y-104450000D03*
X149000000Y-104450000D03*
X148500000Y-104450000D03*
D13*
X150000000Y-107000000D03*
D14*
X150000000Y-107000000D03*
D15*
X145000000Y-104000000D03*
X145000000Y-104500000D03*
X145000000Y-105000000D03*
X145000000Y-105500000D03*
X145000000Y-106000000D03*
X145000000Y-106500000D03*
X145000000Y-107000000D03*
X145000000Y-107500000D03*
X145000000Y-108000000D03*
X145000000Y-108500000D03*
D16*
X142500000Y-102700000D03*
X142500000Y-109800000D03*
D17*
X148625000Y-111850000D03*
X148625000Y-113150000D03*
X150375000Y-111850000D03*
X150375000Y-113150000D03*
D18*
X152000000Y-102000000D03*
X150000000Y-102000000D03*
X146000000Y-102000000D03*
X148000000Y-102000000D03*
D19*
X147100000Y-113250000D03*
X147100000Y-111750000D03*
X151900000Y-111750000D03*
X151900000Y-113250000D03*
X157250000Y-103250000D03*
X157250000Y-101750000D03*
D20*
X154250000Y-103250000D03*
X154250000Y-101750000D03*
X155750000Y-101750000D03*
X155750000Y-103250000D03*
D21*
X153250000Y-104250000D03*
X154750000Y-104250000D03*
D20*
X145650000Y-112400000D03*
X145650000Y-110900000D03*
D22*
X154300000Y-113250000D03*
X155100000Y-113250000D03*
X155900000Y-113250000D03*
X156700000Y-113250000D03*
D23*
X142750000Y-111050000D03*
X142750000Y-111850000D03*
X142750000Y-112650000D03*
X142750000Y-113450000D03*
D15*
X155000000Y-110500000D03*
X155000000Y-110000000D03*
X155000000Y-109500000D03*
X155000000Y-109000000D03*
X155000000Y-108500000D03*
X155000000Y-108000000D03*
X155000000Y-107500000D03*
X155000000Y-107000000D03*
X155000000Y-106500000D03*
X155000000Y-106000000D03*
D16*
X157500000Y-111800000D03*
X157500000Y-104700000D03*
D24*
X144600004Y-113100000D03*
X143350000Y-105750000D03*
X154450000Y-112200000D03*
X147450000Y-110832220D03*
X147450000Y-109550002D03*
X157000000Y-107000000D03*
X156500000Y-112100000D03*
X146200000Y-104900000D03*
X146050000Y-106600000D03*
X144950000Y-102000000D03*
X151050000Y-102000000D03*
X143800000Y-111050000D03*
X153950000Y-106250000D03*
X153250000Y-101750000D03*
X149500000Y-103250000D03*
X146650000Y-104250000D03*
X156800000Y-109000000D03*
X143692799Y-107090398D03*
X144000000Y-107800000D03*
X156050000Y-109650000D03*
X153939710Y-109879179D03*
X145950000Y-107950000D03*
X154050000Y-110633168D03*
X145867790Y-108800000D03*
X153500000Y-108600000D03*
X156001973Y-107662036D03*
X146500000Y-107400000D03*
X148000000Y-103649986D03*
X153550002Y-105500000D03*
X152200000Y-109550000D03*
X148850000Y-110750000D03*
X155750000Y-104050000D03*
X153500000Y-107400000D03*
D25*
X155000000Y-108500000D02*
X154350000Y-108500000D01*
X154350000Y-108500000D02*
X154100000Y-108750000D01*
X154100000Y-108750000D02*
X154100000Y-109050000D01*
X154100000Y-109050000D02*
X153900000Y-109250000D01*
X153900000Y-109250000D02*
X152900000Y-109250000D01*
X152900000Y-109250000D02*
X152600000Y-108950000D01*
X152600000Y-108950000D02*
X151950000Y-108950000D01*
X151950000Y-108950000D02*
X150000000Y-107000000D01*
X147350000Y-104750000D02*
X147200000Y-104900000D01*
X147200000Y-104900000D02*
X146200000Y-104900000D01*
X147750000Y-104750000D02*
X147350000Y-104750000D01*
X150000000Y-107000000D02*
X147750000Y-104750000D01*
X144295205Y-113404799D02*
X144600004Y-113100000D01*
X144250004Y-113450000D02*
X144295205Y-113404799D01*
X143700000Y-113450000D02*
X144250004Y-113450000D01*
X144000000Y-106250000D02*
X144000000Y-105750000D01*
X143350000Y-105750000D02*
X144000000Y-105750000D01*
X144000000Y-105750000D02*
X144000000Y-105250000D01*
X143700000Y-113450000D02*
X145100000Y-113450000D01*
X142750000Y-113450000D02*
X143700000Y-113450000D01*
X153575000Y-112200000D02*
X154450000Y-112200000D01*
X151900000Y-113250000D02*
X152525000Y-113250000D01*
X152525000Y-113250000D02*
X153575000Y-112200000D01*
X147367780Y-110832220D02*
X147450000Y-110832220D01*
X147100000Y-111100000D02*
X147367780Y-110832220D01*
X147100000Y-111750000D02*
X147100000Y-111100000D01*
X150000000Y-107000000D02*
X147754799Y-109245203D01*
X147754799Y-109245203D02*
X147450000Y-109550002D01*
X157000000Y-107000000D02*
X156201595Y-107000000D01*
X156700000Y-112100000D02*
X156700000Y-110800000D01*
X156700000Y-113250000D02*
X156700000Y-112100000D01*
X156700000Y-112100000D02*
X156500000Y-112100000D01*
X157450000Y-110050000D02*
X157450000Y-108781652D01*
X157450000Y-108781652D02*
X156584174Y-107915826D01*
X156700000Y-110800000D02*
X157450000Y-110050000D01*
X146200000Y-104900000D02*
X146100000Y-105000000D01*
X146100000Y-105000000D02*
X145000000Y-105000000D01*
X145000000Y-106500000D02*
X145950000Y-106500000D01*
X145950000Y-106500000D02*
X146050000Y-106600000D01*
X144950000Y-102000000D02*
X146000000Y-102000000D01*
X152000000Y-102000000D02*
X151050000Y-102000000D01*
X152000000Y-102000000D02*
X152350000Y-102000000D01*
X152350000Y-102000000D02*
X152800000Y-102450000D01*
X152800000Y-102450000D02*
X155550000Y-102450000D01*
X155550000Y-102450000D02*
X155750000Y-102250000D01*
X155750000Y-102250000D02*
X155750000Y-101750000D01*
X155750000Y-101750000D02*
X157250000Y-101750000D01*
X147100000Y-111750000D02*
X145750000Y-111750000D01*
X145750000Y-111750000D02*
X145650000Y-111850000D01*
X145650000Y-111850000D02*
X145650000Y-112400000D01*
X145100000Y-113450000D02*
X145650000Y-112900000D01*
X145650000Y-112900000D02*
X145650000Y-112400000D01*
X155000000Y-107000000D02*
X156201595Y-107000000D01*
X156584174Y-107382579D02*
X156584174Y-107915826D01*
X156201595Y-107000000D02*
X156584174Y-107382579D01*
X156584174Y-107915826D02*
X156000000Y-108500000D01*
X156000000Y-108500000D02*
X155000000Y-108500000D01*
X144000000Y-105250000D02*
X144250000Y-105000000D01*
X144250000Y-105000000D02*
X145000000Y-105000000D01*
X144250000Y-106500000D02*
X144000000Y-106250000D01*
X145000000Y-106500000D02*
X144250000Y-106500000D01*
X144075000Y-104250000D02*
X143150000Y-104250000D01*
X143150000Y-104250000D02*
X142450000Y-104950000D01*
X142450000Y-104950000D02*
X142450000Y-108250000D01*
X142450000Y-108250000D02*
X143800000Y-109600000D01*
X143800000Y-109600000D02*
X143800000Y-111050000D01*
X143800000Y-111050000D02*
X142750000Y-111050000D01*
X142750000Y-111050000D02*
X142945200Y-111050000D01*
X145925000Y-104250000D02*
X146200000Y-104250000D01*
X145675000Y-104500000D02*
X145925000Y-104250000D01*
X145000000Y-104500000D02*
X145675000Y-104500000D01*
X145000000Y-104000000D02*
X144325000Y-104000000D01*
X144325000Y-104000000D02*
X144075000Y-104250000D01*
X145000000Y-104500000D02*
X144325000Y-104500000D01*
X144325000Y-104500000D02*
X144075000Y-104250000D01*
X154075000Y-106250000D02*
X153950000Y-106250000D01*
X155000000Y-106000000D02*
X154325000Y-106000000D01*
X154325000Y-106000000D02*
X154075000Y-106250000D01*
X155000000Y-106500000D02*
X154325000Y-106500000D01*
X154325000Y-106500000D02*
X154075000Y-106250000D01*
X153250000Y-101750000D02*
X154250000Y-101750000D01*
X150000000Y-102750000D02*
X149500000Y-103250000D01*
X149500000Y-103250000D02*
X149000000Y-103750000D01*
X146200000Y-104250000D02*
X146650000Y-104250000D01*
X145000000Y-104000000D02*
X145950000Y-104000000D01*
X145950000Y-104000000D02*
X146200000Y-104250000D01*
X149000000Y-103750000D02*
X149000000Y-104450000D01*
X150000000Y-102000000D02*
X150000000Y-102750000D01*
X145000000Y-105500000D02*
X147450000Y-105500000D01*
X145000000Y-106000000D02*
X147450000Y-106000000D01*
X155000000Y-109000000D02*
X156800000Y-109000000D01*
X145000000Y-107000000D02*
X143783197Y-107000000D01*
X143783197Y-107000000D02*
X143692799Y-107090398D01*
X144300000Y-107500000D02*
X144000000Y-107800000D01*
X145000000Y-107500000D02*
X144300000Y-107500000D01*
X155900000Y-109500000D02*
X156050000Y-109650000D01*
X155000000Y-109500000D02*
X155900000Y-109500000D01*
X155000000Y-110000000D02*
X154060531Y-110000000D01*
X154060531Y-110000000D02*
X153939710Y-109879179D01*
X145900000Y-108000000D02*
X145950000Y-107950000D01*
X145000000Y-108000000D02*
X145900000Y-108000000D01*
X154183168Y-110500000D02*
X154050000Y-110633168D01*
X155000000Y-110500000D02*
X154183168Y-110500000D01*
X145867790Y-108692790D02*
X145675000Y-108500000D01*
X145867790Y-108800000D02*
X145867790Y-108692790D01*
X145675000Y-108500000D02*
X145000000Y-108500000D01*
X153400000Y-108500000D02*
X153500000Y-108600000D01*
X152550000Y-108500000D02*
X153400000Y-108500000D01*
X156001973Y-107601973D02*
X156001973Y-107662036D01*
X155900000Y-107500000D02*
X156001973Y-107601973D01*
X155000000Y-107500000D02*
X155002410Y-107502410D01*
X155002410Y-107502410D02*
X155897590Y-107502410D01*
X155897590Y-107502410D02*
X155900000Y-107500000D01*
X155000000Y-108000000D02*
X152550000Y-108000000D01*
D26*
X151500000Y-104450000D02*
X152200000Y-104450000D01*
X152200000Y-104450000D02*
X152550000Y-104800000D01*
X152550000Y-104800000D02*
X152550000Y-105500000D01*
D25*
X146600000Y-107500000D02*
X146500000Y-107400000D01*
X147450000Y-107500000D02*
X146600000Y-107500000D01*
X148500000Y-104125000D02*
X148024986Y-103649986D01*
X148500000Y-104450000D02*
X148500000Y-104125000D01*
X148024986Y-103649986D02*
X148000000Y-103649986D01*
X148000000Y-102000000D02*
X148000000Y-103649986D01*
X153700000Y-105500000D02*
X153550002Y-105500000D01*
X154750000Y-104250000D02*
X154750000Y-104450000D01*
X154750000Y-104450000D02*
X153700000Y-105500000D01*
X152550000Y-105500000D02*
X153550002Y-105500000D01*
X152200000Y-109550000D02*
X151500000Y-109550000D01*
X149000000Y-109550000D02*
X149000000Y-110600000D01*
X149000000Y-110600000D02*
X148850000Y-110750000D01*
X147100000Y-113250000D02*
X148525000Y-113250000D01*
X148525000Y-113250000D02*
X148625000Y-113150000D01*
D26*
X149350000Y-113150000D02*
X148625000Y-113150000D01*
X149500000Y-113000000D02*
X149350000Y-113150000D01*
X149500000Y-109550000D02*
X149500000Y-113000000D01*
D25*
X151900000Y-111750000D02*
X150475000Y-111750000D01*
X150475000Y-111750000D02*
X150375000Y-111850000D01*
D26*
X150000000Y-109550000D02*
X150000000Y-110750000D01*
X150375000Y-111125000D02*
X150375000Y-111850000D01*
X150000000Y-110750000D02*
X150375000Y-111125000D01*
D25*
X155750000Y-103250000D02*
X155750000Y-104050000D01*
X152550000Y-107500000D02*
X153400000Y-107500000D01*
X153400000Y-107500000D02*
X153500000Y-107400000D01*
X154250000Y-103250000D02*
X155750000Y-103250000D01*
X155750000Y-103250000D02*
X157250000Y-103250000D01*
X151000000Y-104450000D02*
X151000000Y-103500000D01*
X153250000Y-103500000D02*
X153250000Y-104250000D01*
X153000000Y-103250000D02*
X153250000Y-103500000D01*
X151250000Y-103250000D02*
X153000000Y-103250000D01*
X151000000Y-103500000D02*
X151250000Y-103250000D01*
X145650000Y-110900000D02*
X146488340Y-110900000D01*
X146488340Y-110900000D02*
X147138340Y-110250000D01*
X147138340Y-110250000D02*
X148125000Y-110250000D01*
X148125000Y-110250000D02*
X148500000Y-109875000D01*
X148500000Y-109875000D02*
X148500000Y-109550000D01*
D27*
X152800000Y-110900000D02*
X153541198Y-111641198D01*
X154718226Y-111641198D02*
X155100000Y-112022972D01*
X151196800Y-110900000D02*
X152800000Y-110900000D01*
X155100000Y-112546800D02*
X155100000Y-113250000D01*
X155100000Y-112022972D02*
X155100000Y-112546800D01*
X153541198Y-111641198D02*
X154718226Y-111641198D01*
X150500000Y-110203200D02*
X151196800Y-110900000D01*
X150500000Y-109550000D02*
X150500000Y-110203200D01*
X151344389Y-110544389D02*
X151000000Y-110200000D01*
X151000000Y-110200000D02*
X151000000Y-109550000D01*
X152947298Y-110544389D02*
X151344389Y-110544389D01*
X153688496Y-111285587D02*
X152947298Y-110544389D01*
X154865524Y-111285587D02*
X153688496Y-111285587D01*
X155900000Y-113250000D02*
X155900000Y-112320063D01*
X155900000Y-112320063D02*
X154865524Y-111285587D01*
X146535588Y-109239704D02*
X145930903Y-109844389D01*
X144358801Y-110338290D02*
X144358801Y-111341199D01*
X144358801Y-111341199D02*
X143850000Y-111850000D01*
X143850000Y-111850000D02*
X143453200Y-111850000D01*
X143453200Y-111850000D02*
X142750000Y-111850000D01*
X146535588Y-108261212D02*
X146535588Y-109239704D01*
X146796800Y-108000000D02*
X146535588Y-108261212D01*
X144852702Y-109844389D02*
X144358801Y-110338290D01*
X145930903Y-109844389D02*
X144852702Y-109844389D01*
X147450000Y-108000000D02*
X146796800Y-108000000D01*
X144714412Y-111535588D02*
X143600000Y-112650000D01*
X143600000Y-112650000D02*
X143453200Y-112650000D01*
X144714412Y-110634477D02*
X144714412Y-111535588D01*
X145148889Y-110200000D02*
X144714412Y-110634477D01*
X146891199Y-109387002D02*
X146078201Y-110200000D01*
X146891199Y-109058801D02*
X146891199Y-109387002D01*
X147450000Y-108500000D02*
X146891199Y-109058801D01*
X146078201Y-110200000D02*
X145148889Y-110200000D01*
X143453200Y-112650000D02*
X142750000Y-112650000D01*
M02*
