G04 #@! TF.FileFunction,Soldermask,Top*
%FSLAX46Y46*%
G04 Gerber Fmt 4.6, Leading zero omitted, Abs format (unit mm)*
G04 Created by KiCad (PCBNEW 4.0.2-stable) date 23/09/2017 10:35:29 PM*
%MOMM*%
G01*
G04 APERTURE LIST*
%ADD10C,0.100000*%
G04 APERTURE END LIST*
D10*
G36*
X143100000Y-110501074D02*
X143103959Y-110528933D01*
X143115523Y-110554587D01*
X143133776Y-110576003D01*
X143150012Y-110587429D01*
X143233782Y-110633483D01*
X143309253Y-110696810D01*
X143370986Y-110773590D01*
X143416629Y-110860899D01*
X143444446Y-110955410D01*
X143444453Y-110955484D01*
X143444459Y-110955505D01*
X143453379Y-111053519D01*
X143443091Y-111151406D01*
X143443085Y-111151424D01*
X143443077Y-111151504D01*
X143413944Y-111245618D01*
X143367085Y-111332281D01*
X143322139Y-111386610D01*
X143307819Y-111409968D01*
X143300377Y-111437105D01*
X143300790Y-111465241D01*
X143309025Y-111492149D01*
X143321200Y-111511669D01*
X143370986Y-111573590D01*
X143416629Y-111660899D01*
X143444446Y-111755410D01*
X143444453Y-111755484D01*
X143444459Y-111755505D01*
X143453379Y-111853519D01*
X143443091Y-111951406D01*
X143443085Y-111951424D01*
X143443077Y-111951504D01*
X143413944Y-112045618D01*
X143367085Y-112132281D01*
X143322139Y-112186610D01*
X143307819Y-112209968D01*
X143300377Y-112237105D01*
X143300790Y-112265241D01*
X143309025Y-112292149D01*
X143321200Y-112311669D01*
X143370986Y-112373590D01*
X143416629Y-112460899D01*
X143444446Y-112555410D01*
X143444453Y-112555484D01*
X143444459Y-112555505D01*
X143453379Y-112653519D01*
X143443091Y-112751406D01*
X143443085Y-112751424D01*
X143443077Y-112751504D01*
X143413944Y-112845618D01*
X143367085Y-112932281D01*
X143322139Y-112986610D01*
X143307819Y-113009968D01*
X143300377Y-113037105D01*
X143300790Y-113065241D01*
X143309025Y-113092149D01*
X143321200Y-113111669D01*
X143370986Y-113173590D01*
X143416629Y-113260899D01*
X143444446Y-113355410D01*
X143444453Y-113355484D01*
X143444459Y-113355505D01*
X143453379Y-113453519D01*
X143443091Y-113551406D01*
X143443085Y-113551424D01*
X143443077Y-113551504D01*
X143413944Y-113645618D01*
X143367085Y-113732281D01*
X143304286Y-113808191D01*
X143227939Y-113870459D01*
X143140951Y-113916711D01*
X143046637Y-113945186D01*
X142948587Y-113954800D01*
X142551342Y-113954800D01*
X142548422Y-113954780D01*
X142548414Y-113954779D01*
X142544365Y-113954751D01*
X142446459Y-113943769D01*
X142352551Y-113913980D01*
X142266218Y-113866517D01*
X142190747Y-113803190D01*
X142129014Y-113726410D01*
X142083371Y-113639101D01*
X142055554Y-113544590D01*
X142055547Y-113544516D01*
X142055541Y-113544495D01*
X142046621Y-113446481D01*
X142056909Y-113348594D01*
X142056915Y-113348576D01*
X142056923Y-113348496D01*
X142086056Y-113254382D01*
X142132915Y-113167719D01*
X142177861Y-113113390D01*
X142192181Y-113090032D01*
X142199623Y-113062895D01*
X142199210Y-113034759D01*
X142190975Y-113007851D01*
X142178800Y-112988331D01*
X142129014Y-112926410D01*
X142083371Y-112839101D01*
X142055554Y-112744590D01*
X142055547Y-112744516D01*
X142055541Y-112744495D01*
X142046621Y-112646481D01*
X142056909Y-112548594D01*
X142056915Y-112548576D01*
X142056923Y-112548496D01*
X142086056Y-112454382D01*
X142132915Y-112367719D01*
X142177861Y-112313390D01*
X142192181Y-112290032D01*
X142199623Y-112262895D01*
X142199210Y-112234759D01*
X142190975Y-112207851D01*
X142178800Y-112188331D01*
X142129014Y-112126410D01*
X142083371Y-112039101D01*
X142055554Y-111944590D01*
X142055547Y-111944516D01*
X142055541Y-111944495D01*
X142046621Y-111846481D01*
X142056909Y-111748594D01*
X142056915Y-111748576D01*
X142056923Y-111748496D01*
X142086056Y-111654382D01*
X142132915Y-111567719D01*
X142177861Y-111513390D01*
X142192181Y-111490032D01*
X142199623Y-111462895D01*
X142199210Y-111434759D01*
X142190975Y-111407851D01*
X142178800Y-111388331D01*
X142129014Y-111326410D01*
X142083371Y-111239101D01*
X142055554Y-111144590D01*
X142055547Y-111144516D01*
X142055541Y-111144495D01*
X142046621Y-111046481D01*
X142056909Y-110948594D01*
X142056915Y-110948576D01*
X142056923Y-110948496D01*
X142086056Y-110854382D01*
X142132915Y-110767719D01*
X142195714Y-110691809D01*
X142214360Y-110676602D01*
X142232623Y-110656818D01*
X142245194Y-110631643D01*
X142250254Y-110603963D01*
X142247402Y-110575968D01*
X142236864Y-110549877D01*
X142219475Y-110527754D01*
X142196610Y-110511352D01*
X142170081Y-110501969D01*
X142150333Y-110500000D01*
X141900000Y-110500000D01*
X141900000Y-109100000D01*
X143100000Y-109100000D01*
X143100000Y-110501074D01*
X143100000Y-110501074D01*
G37*
G36*
X158100000Y-112500000D02*
X157099211Y-112500000D01*
X157071352Y-112503959D01*
X157045698Y-112515523D01*
X157024282Y-112533776D01*
X157008799Y-112557272D01*
X157000475Y-112584152D01*
X156999969Y-112612287D01*
X157007321Y-112639449D01*
X157021949Y-112663487D01*
X157034705Y-112676284D01*
X157058191Y-112695714D01*
X157120459Y-112772061D01*
X157166711Y-112859049D01*
X157195186Y-112953363D01*
X157204800Y-113051413D01*
X157204800Y-113448658D01*
X157204780Y-113451578D01*
X157204779Y-113451586D01*
X157204751Y-113455635D01*
X157193769Y-113553541D01*
X157163980Y-113647449D01*
X157116517Y-113733782D01*
X157053190Y-113809253D01*
X156976410Y-113870986D01*
X156889101Y-113916629D01*
X156794590Y-113944446D01*
X156794516Y-113944453D01*
X156794495Y-113944459D01*
X156696481Y-113953379D01*
X156598594Y-113943091D01*
X156598576Y-113943085D01*
X156598496Y-113943077D01*
X156504382Y-113913944D01*
X156417719Y-113867085D01*
X156363390Y-113822139D01*
X156340032Y-113807819D01*
X156312895Y-113800377D01*
X156284759Y-113800790D01*
X156257851Y-113809025D01*
X156238331Y-113821200D01*
X156176410Y-113870986D01*
X156089101Y-113916629D01*
X155994590Y-113944446D01*
X155994516Y-113944453D01*
X155994495Y-113944459D01*
X155896481Y-113953379D01*
X155798594Y-113943091D01*
X155798576Y-113943085D01*
X155798496Y-113943077D01*
X155704382Y-113913944D01*
X155617719Y-113867085D01*
X155563390Y-113822139D01*
X155540032Y-113807819D01*
X155512895Y-113800377D01*
X155484759Y-113800790D01*
X155457851Y-113809025D01*
X155438331Y-113821200D01*
X155376410Y-113870986D01*
X155289101Y-113916629D01*
X155194590Y-113944446D01*
X155194516Y-113944453D01*
X155194495Y-113944459D01*
X155096481Y-113953379D01*
X154998594Y-113943091D01*
X154998576Y-113943085D01*
X154998496Y-113943077D01*
X154904382Y-113913944D01*
X154817719Y-113867085D01*
X154763390Y-113822139D01*
X154740032Y-113807819D01*
X154712895Y-113800377D01*
X154684759Y-113800790D01*
X154657851Y-113809025D01*
X154638331Y-113821200D01*
X154576410Y-113870986D01*
X154489101Y-113916629D01*
X154394590Y-113944446D01*
X154394516Y-113944453D01*
X154394495Y-113944459D01*
X154296481Y-113953379D01*
X154198594Y-113943091D01*
X154198576Y-113943085D01*
X154198496Y-113943077D01*
X154104382Y-113913944D01*
X154017719Y-113867085D01*
X153941809Y-113804286D01*
X153879541Y-113727939D01*
X153833289Y-113640951D01*
X153804814Y-113546637D01*
X153795200Y-113448587D01*
X153795200Y-113051342D01*
X153795220Y-113048422D01*
X153795221Y-113048414D01*
X153795249Y-113044365D01*
X153806231Y-112946459D01*
X153836020Y-112852551D01*
X153883483Y-112766218D01*
X153946810Y-112690747D01*
X154023590Y-112629014D01*
X154110899Y-112583371D01*
X154205410Y-112555554D01*
X154205484Y-112555547D01*
X154205505Y-112555541D01*
X154303519Y-112546621D01*
X154401406Y-112556909D01*
X154401424Y-112556915D01*
X154401504Y-112556923D01*
X154495618Y-112586056D01*
X154582281Y-112632915D01*
X154636610Y-112677861D01*
X154659968Y-112692181D01*
X154687105Y-112699623D01*
X154715241Y-112699210D01*
X154742149Y-112690975D01*
X154761669Y-112678800D01*
X154823590Y-112629014D01*
X154910899Y-112583371D01*
X155005410Y-112555554D01*
X155005484Y-112555547D01*
X155005505Y-112555541D01*
X155103519Y-112546621D01*
X155201406Y-112556909D01*
X155201424Y-112556915D01*
X155201504Y-112556923D01*
X155295618Y-112586056D01*
X155382281Y-112632915D01*
X155436610Y-112677861D01*
X155459968Y-112692181D01*
X155487105Y-112699623D01*
X155515241Y-112699210D01*
X155542149Y-112690975D01*
X155561669Y-112678800D01*
X155623590Y-112629014D01*
X155710899Y-112583371D01*
X155805410Y-112555554D01*
X155805484Y-112555547D01*
X155805505Y-112555541D01*
X155903519Y-112546621D01*
X156001406Y-112556909D01*
X156001424Y-112556915D01*
X156001504Y-112556923D01*
X156095618Y-112586056D01*
X156182281Y-112632915D01*
X156236610Y-112677861D01*
X156259968Y-112692181D01*
X156287105Y-112699623D01*
X156315241Y-112699210D01*
X156342149Y-112690975D01*
X156361669Y-112678800D01*
X156423590Y-112629014D01*
X156510899Y-112583371D01*
X156605410Y-112555554D01*
X156605484Y-112555547D01*
X156605505Y-112555541D01*
X156703519Y-112546621D01*
X156789547Y-112555663D01*
X156817667Y-112554638D01*
X156844389Y-112545819D01*
X156867596Y-112529905D01*
X156885450Y-112508156D01*
X156896539Y-112482293D01*
X156900000Y-112456211D01*
X156900000Y-111100000D01*
X158100000Y-111100000D01*
X158100000Y-112500000D01*
X158100000Y-112500000D01*
G37*
G36*
X152475000Y-112350000D02*
X151250000Y-112350000D01*
X151222141Y-112353959D01*
X151196487Y-112365523D01*
X151175071Y-112383776D01*
X151159588Y-112407272D01*
X151151264Y-112434152D01*
X151150000Y-112450000D01*
X151150000Y-112550000D01*
X151153959Y-112577859D01*
X151165523Y-112603513D01*
X151183776Y-112624929D01*
X151207272Y-112640412D01*
X151234152Y-112648736D01*
X151250000Y-112650000D01*
X152475000Y-112650000D01*
X152475000Y-113850000D01*
X146525000Y-113850000D01*
X146525000Y-112650000D01*
X147750000Y-112650000D01*
X147777859Y-112646041D01*
X147803513Y-112634477D01*
X147824929Y-112616224D01*
X147840412Y-112592728D01*
X147848736Y-112565848D01*
X147850000Y-112550000D01*
X147850000Y-112450000D01*
X147846041Y-112422141D01*
X147834477Y-112396487D01*
X147816224Y-112375071D01*
X147792728Y-112359588D01*
X147765848Y-112351264D01*
X147750000Y-112350000D01*
X146525000Y-112350000D01*
X146525000Y-111150000D01*
X152475000Y-111150000D01*
X152475000Y-112350000D01*
X152475000Y-112350000D01*
G37*
G36*
X146300000Y-112850000D02*
X145000000Y-112850000D01*
X145000000Y-111950000D01*
X146300000Y-111950000D01*
X146300000Y-112850000D01*
X146300000Y-112850000D01*
G37*
G36*
X146300000Y-111350000D02*
X145000000Y-111350000D01*
X145000000Y-110450000D01*
X146300000Y-110450000D01*
X146300000Y-111350000D01*
X146300000Y-111350000D01*
G37*
G36*
X155625000Y-110825000D02*
X154375000Y-110825000D01*
X154375000Y-105675000D01*
X155625000Y-105675000D01*
X155625000Y-110825000D01*
X155625000Y-110825000D01*
G37*
G36*
X151565254Y-103803479D02*
X151565273Y-103803485D01*
X151565350Y-103803493D01*
X151625943Y-103822249D01*
X151681738Y-103852418D01*
X151730610Y-103892849D01*
X151770699Y-103942003D01*
X151800477Y-103998007D01*
X151818810Y-104058729D01*
X151825000Y-104121855D01*
X151825000Y-104778227D01*
X151824997Y-104778629D01*
X151824968Y-104782683D01*
X151817898Y-104845716D01*
X151798719Y-104906176D01*
X151797899Y-104907667D01*
X151795314Y-104915817D01*
X151795518Y-104915882D01*
X151790880Y-104928152D01*
X151788657Y-104956203D01*
X151794336Y-104983763D01*
X151807469Y-105008650D01*
X151827015Y-105028892D01*
X151851427Y-105042888D01*
X151888464Y-105050000D01*
X151950000Y-105050000D01*
X151950000Y-105112075D01*
X151953959Y-105139934D01*
X151965523Y-105165588D01*
X151983776Y-105187004D01*
X152007272Y-105202487D01*
X152034152Y-105210811D01*
X152062287Y-105211317D01*
X152095639Y-105200782D01*
X152098007Y-105199523D01*
X152158729Y-105181190D01*
X152221855Y-105175000D01*
X152878227Y-105175000D01*
X152878629Y-105175003D01*
X152878633Y-105175003D01*
X152882683Y-105175032D01*
X152945716Y-105182102D01*
X153006176Y-105201281D01*
X153061759Y-105231838D01*
X153110349Y-105272609D01*
X153150093Y-105322042D01*
X153179480Y-105378253D01*
X153197388Y-105439101D01*
X153197394Y-105439162D01*
X153197402Y-105439191D01*
X153203142Y-105502264D01*
X153196521Y-105565254D01*
X153196515Y-105565273D01*
X153196507Y-105565350D01*
X153177751Y-105625943D01*
X153147582Y-105681738D01*
X153143118Y-105687134D01*
X153128795Y-105710496D01*
X153121354Y-105737633D01*
X153121767Y-105765769D01*
X153130003Y-105792676D01*
X153142181Y-105812201D01*
X153150093Y-105822042D01*
X153179480Y-105878253D01*
X153197388Y-105939101D01*
X153197394Y-105939162D01*
X153197402Y-105939191D01*
X153203142Y-106002264D01*
X153196521Y-106065254D01*
X153196515Y-106065273D01*
X153196507Y-106065350D01*
X153177751Y-106125943D01*
X153147582Y-106181738D01*
X153143118Y-106187134D01*
X153128795Y-106210496D01*
X153121354Y-106237633D01*
X153121767Y-106265769D01*
X153130003Y-106292676D01*
X153142181Y-106312201D01*
X153150093Y-106322042D01*
X153179480Y-106378253D01*
X153197388Y-106439101D01*
X153197394Y-106439162D01*
X153197402Y-106439191D01*
X153203142Y-106502264D01*
X153196521Y-106565254D01*
X153196515Y-106565273D01*
X153196507Y-106565350D01*
X153177751Y-106625943D01*
X153147582Y-106681738D01*
X153143118Y-106687134D01*
X153128795Y-106710496D01*
X153121354Y-106737633D01*
X153121767Y-106765769D01*
X153130003Y-106792676D01*
X153142181Y-106812201D01*
X153150093Y-106822042D01*
X153179480Y-106878253D01*
X153197388Y-106939101D01*
X153197394Y-106939162D01*
X153197402Y-106939191D01*
X153203142Y-107002264D01*
X153196521Y-107065254D01*
X153196515Y-107065273D01*
X153196507Y-107065350D01*
X153177751Y-107125943D01*
X153147582Y-107181738D01*
X153143118Y-107187134D01*
X153128795Y-107210496D01*
X153121354Y-107237633D01*
X153121767Y-107265769D01*
X153130003Y-107292676D01*
X153142181Y-107312201D01*
X153150093Y-107322042D01*
X153179480Y-107378253D01*
X153197388Y-107439101D01*
X153197394Y-107439162D01*
X153197402Y-107439191D01*
X153203142Y-107502264D01*
X153196521Y-107565254D01*
X153196515Y-107565273D01*
X153196507Y-107565350D01*
X153177751Y-107625943D01*
X153147582Y-107681738D01*
X153143118Y-107687134D01*
X153128795Y-107710496D01*
X153121354Y-107737633D01*
X153121767Y-107765769D01*
X153130003Y-107792676D01*
X153142181Y-107812201D01*
X153150093Y-107822042D01*
X153179480Y-107878253D01*
X153197388Y-107939101D01*
X153197394Y-107939162D01*
X153197402Y-107939191D01*
X153203142Y-108002264D01*
X153196521Y-108065254D01*
X153196515Y-108065273D01*
X153196507Y-108065350D01*
X153177751Y-108125943D01*
X153147582Y-108181738D01*
X153143118Y-108187134D01*
X153128795Y-108210496D01*
X153121354Y-108237633D01*
X153121767Y-108265769D01*
X153130003Y-108292676D01*
X153142181Y-108312201D01*
X153150093Y-108322042D01*
X153179480Y-108378253D01*
X153197388Y-108439101D01*
X153197394Y-108439162D01*
X153197402Y-108439191D01*
X153203142Y-108502264D01*
X153196521Y-108565254D01*
X153196515Y-108565273D01*
X153196507Y-108565350D01*
X153177751Y-108625943D01*
X153147582Y-108681738D01*
X153107151Y-108730610D01*
X153057997Y-108770699D01*
X153001993Y-108800477D01*
X152941271Y-108818810D01*
X152878145Y-108825000D01*
X152221773Y-108825000D01*
X152221371Y-108824997D01*
X152221367Y-108824997D01*
X152217317Y-108824968D01*
X152154284Y-108817898D01*
X152093824Y-108798719D01*
X152092333Y-108797899D01*
X152084183Y-108795314D01*
X152084118Y-108795518D01*
X152071848Y-108790880D01*
X152043797Y-108788657D01*
X152016237Y-108794336D01*
X151991350Y-108807469D01*
X151971108Y-108827015D01*
X151957112Y-108851427D01*
X151950000Y-108888464D01*
X151950000Y-108950000D01*
X151887925Y-108950000D01*
X151860066Y-108953959D01*
X151834412Y-108965523D01*
X151812996Y-108983776D01*
X151797513Y-109007272D01*
X151789189Y-109034152D01*
X151788683Y-109062287D01*
X151799218Y-109095639D01*
X151800477Y-109098007D01*
X151818810Y-109158729D01*
X151825000Y-109221855D01*
X151825000Y-109878227D01*
X151824997Y-109878629D01*
X151824968Y-109882683D01*
X151817898Y-109945716D01*
X151798719Y-110006176D01*
X151768162Y-110061759D01*
X151727391Y-110110349D01*
X151677958Y-110150093D01*
X151621747Y-110179480D01*
X151560899Y-110197388D01*
X151560838Y-110197394D01*
X151560809Y-110197402D01*
X151497736Y-110203142D01*
X151434746Y-110196521D01*
X151434727Y-110196515D01*
X151434650Y-110196507D01*
X151374057Y-110177751D01*
X151318262Y-110147582D01*
X151312866Y-110143118D01*
X151289504Y-110128795D01*
X151262367Y-110121354D01*
X151234231Y-110121767D01*
X151207324Y-110130003D01*
X151187799Y-110142181D01*
X151177958Y-110150093D01*
X151121747Y-110179480D01*
X151060899Y-110197388D01*
X151060838Y-110197394D01*
X151060809Y-110197402D01*
X150997736Y-110203142D01*
X150934746Y-110196521D01*
X150934727Y-110196515D01*
X150934650Y-110196507D01*
X150874057Y-110177751D01*
X150818262Y-110147582D01*
X150812866Y-110143118D01*
X150789504Y-110128795D01*
X150762367Y-110121354D01*
X150734231Y-110121767D01*
X150707324Y-110130003D01*
X150687799Y-110142181D01*
X150677958Y-110150093D01*
X150621747Y-110179480D01*
X150560899Y-110197388D01*
X150560838Y-110197394D01*
X150560809Y-110197402D01*
X150497736Y-110203142D01*
X150434746Y-110196521D01*
X150434727Y-110196515D01*
X150434650Y-110196507D01*
X150374057Y-110177751D01*
X150318262Y-110147582D01*
X150312866Y-110143118D01*
X150289504Y-110128795D01*
X150262367Y-110121354D01*
X150234231Y-110121767D01*
X150207324Y-110130003D01*
X150187799Y-110142181D01*
X150177958Y-110150093D01*
X150121747Y-110179480D01*
X150060899Y-110197388D01*
X150060838Y-110197394D01*
X150060809Y-110197402D01*
X149997736Y-110203142D01*
X149934746Y-110196521D01*
X149934727Y-110196515D01*
X149934650Y-110196507D01*
X149874057Y-110177751D01*
X149818262Y-110147582D01*
X149812866Y-110143118D01*
X149789504Y-110128795D01*
X149762367Y-110121354D01*
X149734231Y-110121767D01*
X149707324Y-110130003D01*
X149687799Y-110142181D01*
X149677958Y-110150093D01*
X149621747Y-110179480D01*
X149560899Y-110197388D01*
X149560838Y-110197394D01*
X149560809Y-110197402D01*
X149497736Y-110203142D01*
X149434746Y-110196521D01*
X149434727Y-110196515D01*
X149434650Y-110196507D01*
X149374057Y-110177751D01*
X149318262Y-110147582D01*
X149312866Y-110143118D01*
X149289504Y-110128795D01*
X149262367Y-110121354D01*
X149234231Y-110121767D01*
X149207324Y-110130003D01*
X149187799Y-110142181D01*
X149177958Y-110150093D01*
X149121747Y-110179480D01*
X149060899Y-110197388D01*
X149060838Y-110197394D01*
X149060809Y-110197402D01*
X148997736Y-110203142D01*
X148934746Y-110196521D01*
X148934727Y-110196515D01*
X148934650Y-110196507D01*
X148874057Y-110177751D01*
X148818262Y-110147582D01*
X148812866Y-110143118D01*
X148789504Y-110128795D01*
X148762367Y-110121354D01*
X148734231Y-110121767D01*
X148707324Y-110130003D01*
X148687799Y-110142181D01*
X148677958Y-110150093D01*
X148621747Y-110179480D01*
X148560899Y-110197388D01*
X148560838Y-110197394D01*
X148560809Y-110197402D01*
X148497736Y-110203142D01*
X148434746Y-110196521D01*
X148434727Y-110196515D01*
X148434650Y-110196507D01*
X148374057Y-110177751D01*
X148318262Y-110147582D01*
X148269390Y-110107151D01*
X148229301Y-110057997D01*
X148199523Y-110001993D01*
X148181190Y-109941271D01*
X148175000Y-109878145D01*
X148175000Y-109221773D01*
X148175003Y-109221371D01*
X148175003Y-109221367D01*
X148175032Y-109217317D01*
X148182102Y-109154284D01*
X148201281Y-109093824D01*
X148202101Y-109092333D01*
X148204686Y-109084183D01*
X148204482Y-109084118D01*
X148209120Y-109071848D01*
X148211343Y-109043797D01*
X148205664Y-109016237D01*
X148192531Y-108991350D01*
X148172985Y-108971108D01*
X148148573Y-108957112D01*
X148111536Y-108950000D01*
X148050000Y-108950000D01*
X148050000Y-108887925D01*
X148046041Y-108860066D01*
X148034477Y-108834412D01*
X148016224Y-108812996D01*
X147992728Y-108797513D01*
X147965848Y-108789189D01*
X147937713Y-108788683D01*
X147904361Y-108799218D01*
X147901993Y-108800477D01*
X147841271Y-108818810D01*
X147778145Y-108825000D01*
X147121773Y-108825000D01*
X147121371Y-108824997D01*
X147121367Y-108824997D01*
X147117317Y-108824968D01*
X147054284Y-108817898D01*
X146993824Y-108798719D01*
X146938241Y-108768162D01*
X146889651Y-108727391D01*
X146849907Y-108677958D01*
X146820520Y-108621747D01*
X146802612Y-108560899D01*
X146802606Y-108560838D01*
X146802598Y-108560809D01*
X146796858Y-108497736D01*
X146803479Y-108434746D01*
X146803485Y-108434727D01*
X146803493Y-108434650D01*
X146822249Y-108374057D01*
X146852418Y-108318262D01*
X146856882Y-108312866D01*
X146871205Y-108289504D01*
X146878646Y-108262367D01*
X146878233Y-108234231D01*
X146869997Y-108207324D01*
X146857819Y-108187799D01*
X146849907Y-108177958D01*
X146820520Y-108121747D01*
X146802612Y-108060899D01*
X146802606Y-108060838D01*
X146802598Y-108060809D01*
X146796858Y-107997736D01*
X146803479Y-107934746D01*
X146803485Y-107934727D01*
X146803493Y-107934650D01*
X146822249Y-107874057D01*
X146852418Y-107818262D01*
X146856882Y-107812866D01*
X146871205Y-107789504D01*
X146878646Y-107762367D01*
X146878233Y-107734231D01*
X146869997Y-107707324D01*
X146857819Y-107687799D01*
X146849907Y-107677958D01*
X146820520Y-107621747D01*
X146802612Y-107560899D01*
X146802606Y-107560838D01*
X146802598Y-107560809D01*
X146796858Y-107497736D01*
X146803479Y-107434746D01*
X146803485Y-107434727D01*
X146803493Y-107434650D01*
X146822249Y-107374057D01*
X146852418Y-107318262D01*
X146856882Y-107312866D01*
X146871205Y-107289504D01*
X146878646Y-107262367D01*
X146878233Y-107234231D01*
X146869997Y-107207324D01*
X146857819Y-107187799D01*
X146849907Y-107177958D01*
X146820520Y-107121747D01*
X146802612Y-107060899D01*
X146802606Y-107060838D01*
X146802598Y-107060809D01*
X146796858Y-106997736D01*
X146803479Y-106934746D01*
X146803485Y-106934727D01*
X146803493Y-106934650D01*
X146822249Y-106874057D01*
X146852418Y-106818262D01*
X146856882Y-106812866D01*
X146871205Y-106789504D01*
X146878646Y-106762367D01*
X146878233Y-106734231D01*
X146869997Y-106707324D01*
X146857819Y-106687799D01*
X146849907Y-106677958D01*
X146820520Y-106621747D01*
X146802612Y-106560899D01*
X146802606Y-106560838D01*
X146802598Y-106560809D01*
X146796858Y-106497736D01*
X146803479Y-106434746D01*
X146803485Y-106434727D01*
X146803493Y-106434650D01*
X146822249Y-106374057D01*
X146852418Y-106318262D01*
X146856882Y-106312866D01*
X146871205Y-106289504D01*
X146878646Y-106262367D01*
X146878233Y-106234231D01*
X146869997Y-106207324D01*
X146857819Y-106187799D01*
X146849907Y-106177958D01*
X146820520Y-106121747D01*
X146802612Y-106060899D01*
X146802606Y-106060838D01*
X146802598Y-106060809D01*
X146796858Y-105997736D01*
X146803479Y-105934746D01*
X146803485Y-105934727D01*
X146803493Y-105934650D01*
X146822249Y-105874057D01*
X146852418Y-105818262D01*
X146856882Y-105812866D01*
X146871205Y-105789504D01*
X146878646Y-105762367D01*
X146878233Y-105734231D01*
X146869997Y-105707324D01*
X146857819Y-105687799D01*
X146849907Y-105677958D01*
X146820520Y-105621747D01*
X146802612Y-105560899D01*
X146802606Y-105560838D01*
X146802598Y-105560809D01*
X146796858Y-105497736D01*
X146803479Y-105434746D01*
X146803485Y-105434727D01*
X146803493Y-105434650D01*
X146822249Y-105374057D01*
X146852418Y-105318262D01*
X146892849Y-105269390D01*
X146942003Y-105229301D01*
X146998007Y-105199523D01*
X147058729Y-105181190D01*
X147121855Y-105175000D01*
X147778227Y-105175000D01*
X147778629Y-105175003D01*
X147778633Y-105175003D01*
X147782683Y-105175032D01*
X147845716Y-105182102D01*
X147906176Y-105201281D01*
X147907667Y-105202101D01*
X147915817Y-105204686D01*
X147915882Y-105204482D01*
X147928152Y-105209120D01*
X147956203Y-105211343D01*
X147983763Y-105205664D01*
X148008650Y-105192531D01*
X148028892Y-105172985D01*
X148042888Y-105148573D01*
X148050000Y-105111536D01*
X148050000Y-105050000D01*
X148112075Y-105050000D01*
X148139934Y-105046041D01*
X148165588Y-105034477D01*
X148187004Y-105016224D01*
X148202487Y-104992728D01*
X148210811Y-104965848D01*
X148211317Y-104937713D01*
X148200782Y-104904361D01*
X148199523Y-104901993D01*
X148181190Y-104841271D01*
X148175000Y-104778145D01*
X148175000Y-104121773D01*
X148175003Y-104121371D01*
X148175003Y-104121367D01*
X148175032Y-104117317D01*
X148182102Y-104054284D01*
X148201281Y-103993824D01*
X148231838Y-103938241D01*
X148272609Y-103889651D01*
X148322042Y-103849907D01*
X148378253Y-103820520D01*
X148439101Y-103802612D01*
X148439162Y-103802606D01*
X148439191Y-103802598D01*
X148502264Y-103796858D01*
X148565254Y-103803479D01*
X148565273Y-103803485D01*
X148565350Y-103803493D01*
X148625943Y-103822249D01*
X148681738Y-103852418D01*
X148687134Y-103856882D01*
X148710496Y-103871205D01*
X148737633Y-103878646D01*
X148765769Y-103878233D01*
X148792676Y-103869997D01*
X148812201Y-103857819D01*
X148822042Y-103849907D01*
X148878253Y-103820520D01*
X148939101Y-103802612D01*
X148939162Y-103802606D01*
X148939191Y-103802598D01*
X149002264Y-103796858D01*
X149065254Y-103803479D01*
X149065273Y-103803485D01*
X149065350Y-103803493D01*
X149125943Y-103822249D01*
X149181738Y-103852418D01*
X149187134Y-103856882D01*
X149210496Y-103871205D01*
X149237633Y-103878646D01*
X149265769Y-103878233D01*
X149292676Y-103869997D01*
X149312201Y-103857819D01*
X149322042Y-103849907D01*
X149378253Y-103820520D01*
X149439101Y-103802612D01*
X149439162Y-103802606D01*
X149439191Y-103802598D01*
X149502264Y-103796858D01*
X149565254Y-103803479D01*
X149565273Y-103803485D01*
X149565350Y-103803493D01*
X149625943Y-103822249D01*
X149681738Y-103852418D01*
X149687134Y-103856882D01*
X149710496Y-103871205D01*
X149737633Y-103878646D01*
X149765769Y-103878233D01*
X149792676Y-103869997D01*
X149812201Y-103857819D01*
X149822042Y-103849907D01*
X149878253Y-103820520D01*
X149939101Y-103802612D01*
X149939162Y-103802606D01*
X149939191Y-103802598D01*
X150002264Y-103796858D01*
X150065254Y-103803479D01*
X150065273Y-103803485D01*
X150065350Y-103803493D01*
X150125943Y-103822249D01*
X150181738Y-103852418D01*
X150187134Y-103856882D01*
X150210496Y-103871205D01*
X150237633Y-103878646D01*
X150265769Y-103878233D01*
X150292676Y-103869997D01*
X150312201Y-103857819D01*
X150322042Y-103849907D01*
X150378253Y-103820520D01*
X150439101Y-103802612D01*
X150439162Y-103802606D01*
X150439191Y-103802598D01*
X150502264Y-103796858D01*
X150565254Y-103803479D01*
X150565273Y-103803485D01*
X150565350Y-103803493D01*
X150625943Y-103822249D01*
X150681738Y-103852418D01*
X150687134Y-103856882D01*
X150710496Y-103871205D01*
X150737633Y-103878646D01*
X150765769Y-103878233D01*
X150792676Y-103869997D01*
X150812201Y-103857819D01*
X150822042Y-103849907D01*
X150878253Y-103820520D01*
X150939101Y-103802612D01*
X150939162Y-103802606D01*
X150939191Y-103802598D01*
X151002264Y-103796858D01*
X151065254Y-103803479D01*
X151065273Y-103803485D01*
X151065350Y-103803493D01*
X151125943Y-103822249D01*
X151181738Y-103852418D01*
X151187134Y-103856882D01*
X151210496Y-103871205D01*
X151237633Y-103878646D01*
X151265769Y-103878233D01*
X151292676Y-103869997D01*
X151312201Y-103857819D01*
X151322042Y-103849907D01*
X151378253Y-103820520D01*
X151439101Y-103802612D01*
X151439162Y-103802606D01*
X151439191Y-103802598D01*
X151502264Y-103796858D01*
X151565254Y-103803479D01*
X151565254Y-103803479D01*
G37*
G36*
X145625000Y-108825000D02*
X144375000Y-108825000D01*
X144375000Y-103675000D01*
X145625000Y-103675000D01*
X145625000Y-108825000D01*
X145625000Y-108825000D01*
G37*
G36*
X157825000Y-103900000D02*
X157828959Y-103927859D01*
X157840523Y-103953513D01*
X157858776Y-103974929D01*
X157882272Y-103990412D01*
X157909152Y-103998736D01*
X157925000Y-104000000D01*
X158100000Y-104000000D01*
X158100000Y-105400000D01*
X156900000Y-105400000D01*
X156900000Y-103950000D01*
X156896041Y-103922141D01*
X156884477Y-103896487D01*
X156866224Y-103875071D01*
X156842728Y-103859588D01*
X156815848Y-103851264D01*
X156800000Y-103850000D01*
X156675000Y-103850000D01*
X156675000Y-102650000D01*
X157825000Y-102650000D01*
X157825000Y-103900000D01*
X157825000Y-103900000D01*
G37*
G36*
X156400000Y-103700000D02*
X155300000Y-103700000D01*
X155272141Y-103703959D01*
X155246487Y-103715523D01*
X155225071Y-103733776D01*
X155209588Y-103757272D01*
X155201264Y-103784152D01*
X155200000Y-103800000D01*
X155200000Y-104900000D01*
X154300000Y-104900000D01*
X154300000Y-103800000D01*
X154296041Y-103772141D01*
X154284477Y-103746487D01*
X154266224Y-103725071D01*
X154242728Y-103709588D01*
X154215848Y-103701264D01*
X154200000Y-103700000D01*
X153800000Y-103700000D01*
X153772141Y-103703959D01*
X153746487Y-103715523D01*
X153725071Y-103733776D01*
X153709588Y-103757272D01*
X153701264Y-103784152D01*
X153700000Y-103800000D01*
X153700000Y-104900000D01*
X152800000Y-104900000D01*
X152800000Y-103600000D01*
X153500000Y-103600000D01*
X153527859Y-103596041D01*
X153553513Y-103584477D01*
X153574929Y-103566224D01*
X153590412Y-103542728D01*
X153598736Y-103515848D01*
X153600000Y-103500000D01*
X153600000Y-102800000D01*
X156400000Y-102800000D01*
X156400000Y-103700000D01*
X156400000Y-103700000D01*
G37*
G36*
X143100000Y-103400000D02*
X141900000Y-103400000D01*
X141900000Y-102000000D01*
X143100000Y-102000000D01*
X143100000Y-103400000D01*
X143100000Y-103400000D01*
G37*
G36*
X148700000Y-102825000D02*
X147300000Y-102825000D01*
X147300000Y-101175000D01*
X148700000Y-101175000D01*
X148700000Y-102825000D01*
X148700000Y-102825000D01*
G37*
G36*
X146700000Y-102825000D02*
X145300000Y-102825000D01*
X145300000Y-101175000D01*
X146700000Y-101175000D01*
X146700000Y-102825000D01*
X146700000Y-102825000D01*
G37*
G36*
X150700000Y-102825000D02*
X149300000Y-102825000D01*
X149300000Y-101175000D01*
X150700000Y-101175000D01*
X150700000Y-102825000D01*
X150700000Y-102825000D01*
G37*
G36*
X152700000Y-102825000D02*
X151300000Y-102825000D01*
X151300000Y-101175000D01*
X152700000Y-101175000D01*
X152700000Y-102825000D01*
X152700000Y-102825000D01*
G37*
G36*
X157825000Y-102350000D02*
X156675000Y-102350000D01*
X156675000Y-101150000D01*
X157825000Y-101150000D01*
X157825000Y-102350000D01*
X157825000Y-102350000D01*
G37*
G36*
X156400000Y-102200000D02*
X153600000Y-102200000D01*
X153600000Y-101300000D01*
X156400000Y-101300000D01*
X156400000Y-102200000D01*
X156400000Y-102200000D01*
G37*
M02*
